<?xml version="1.0" encoding="utf-8"?>
<!-- Generator: Adobe Illustrator 26.0.2, SVG Export Plug-In . SVG Version: 6.00 Build 0)  -->
<svg version="1.1" id="Calque_1" xmlns="http://www.w3.org/2000/svg" xmlns:xlink="http://www.w3.org/1999/xlink" x="0px" y="0px"
	 viewBox="0 0 830.7 200" style="enable-background:new 0 0 830.7 200;" xml:space="preserve">
<style type="text/css">
	.st0{fill:url(#SVGID_1_);}
	.st1{fill:url(#SVGID_00000163060563992812370500000014119607964735959186_);}
	.st2{fill:#393A39;}
</style>
<g>
	<g>
		<linearGradient id="SVGID_1_" gradientUnits="userSpaceOnUse" x1="79.3753" y1="190.7864" x2="180.3259" y2="89.8357">
			<stop  offset="0" style="stop-color:#CC0935"/>
			<stop  offset="0.2722" style="stop-color:#D91E23"/>
			<stop  offset="0.558" style="stop-color:#E22E16"/>
			<stop  offset="0.7889" style="stop-color:#E63312"/>
		</linearGradient>
		<path class="st0" d="M83.9,160c0,16.7,1.4,30.9,2.2,37.5h47.8c-0.8-6.4-2.2-20.8-2.2-31.2c0-21.3,9.2-30.7,30.3-30.7h15.2V86.7
			H157C88.4,86.7,83.9,142.6,83.9,160z"/>
		
			<linearGradient id="SVGID_00000070076092823930675160000002220581277125984406_" gradientUnits="userSpaceOnUse" x1="-15.0911" y1="180.0584" x2="171.0761" y2="-6.1088">
			<stop  offset="0" style="stop-color:#CC0935"/>
			<stop  offset="0.2722" style="stop-color:#D91E23"/>
			<stop  offset="0.558" style="stop-color:#E22E16"/>
			<stop  offset="0.7889" style="stop-color:#E63312"/>
		</linearGradient>
		<path style="fill:url(#SVGID_00000070076092823930675160000002220581277125984406_);" d="M153.8,0C56.3,0,0,55.2,0,153.2
			c0,14.7,1.5,35.9,2.3,44.2h50c-0.8-7.1-2.2-23.4-2.2-37.8c0-81.4,54.1-108.5,106.6-108.5h20.5V0H153.8z"/>
	</g>
	<g>
		<path class="st2" d="M534.7,49h-12.9c-1.8-7.5-7-13.3-16-13.3c-11.7,0-19.1,9.5-19.1,23.4s7.4,23.4,19.1,23.4
			c9.2,0,14.3-5.8,16-13.6h12.6c0,12.7-12,24.3-28.6,24.3c-18.8,0-31.9-14.1-31.9-34.1S487,25,505.8,25
			C522.3,25,534.1,36.1,534.7,49z"/>
		<path class="st2" d="M224.9,0.1h61.7v11.8h-48.8v30.6h42.9v11.8h-42.9v36.6h-12.9V0.1z"/>
		<path class="st2" d="M293.8,27.5h11.7v12.1l0,0c1.6-5.2,8.1-12.8,18.1-12.8h8.7v11.2h-7.5c-12.1,0-18.6,9.5-18.6,22.5v30.3h-12.3
			V27.5z"/>
		<path class="st2" d="M380.3,110.8h13.4v13.1h-13.4V110.8z M380.8,134.2h12.3v63.3h-12.3V134.2z"/>
		<path class="st2" d="M451.6,134.2l-18.9,54.7l-19.1-54.7h-12.8l23.4,63.3H441l23.5-63.3H451.6z"/>
		<path class="st2" d="M641.6,110.8H655v13.1h-13.4V110.8z M642.1,134.2h12.3v63.3h-12.3V134.2z"/>
		<path class="st2" d="M704.1,187.1v10.4h-11.3c-11.1,0-17.4-6.2-17.4-17.2v-35.7h-13.2v-10.4h8.5c3.2,0,5.7-2.6,5.7-5.7v-14h11.3
			v19.7h16.4v10.4h-16.4v35.5c0,3.9,3.1,7,7,7H704.1z"/>
		<path class="st2" d="M761.6,104.8l-14.8,18.4h-10.6l8.7-18.4H761.6z"/>
		<path class="st2" d="M539,134.2h11.7v12.1l0,0c1.6-5.2,8.1-12.8,18.1-12.8h8.1v11.2h-6.8c-12.1,0-18.6,9.5-18.6,22.5v30.3H539
			V134.2z"/>
		<path class="st2" d="M406.7,27.5h11.7V39l0,0c3.4-8,11.4-14,22.6-14c13.8,0,23.9,10.7,23.9,26.2v39.6h-12.3V53
			c0-10.4-5.5-16.1-14.8-16.1c-10.7,0-18.6,8.4-18.6,23.4v30.6h-12.3V27.5z"/>
		<path class="st2" d="M309.2,134.2h11.7v11.5l0,0c3.4-8,11.4-14,22.6-14c13.8,0,23.9,10.7,23.9,26.2v39.6h-12.3v-37.9
			c0-10.4-5.5-16.1-14.8-16.1c-10.7,0-18.6,8.4-18.6,23.4v30.6h-12.3V134.2z"/>
		<path class="st2" d="M282.7,110.8v45.6c0,15.2-10.9,31.5-24.9,31.5c-13.2,0-20-7.9-20-22v-55.1h-12.9v54.7
			c0,18.4,8,34.5,30.5,34.5c14.8,0,24.6-8.9,28.3-18v15.6h11.9v-86.8H282.7z"/>
		<path class="st2" d="M395.5,80.9c-3.9,0-5.3-2-5.3-6.2v-25c0-15.1-9.9-24.7-26.5-24.7c-13.1,0-24.8,7.4-26.5,22.2h12.3
			c1.2-8.4,7.4-11.5,14.6-11.5c8,0,13.9,4.4,13.9,10c0,1.9-0.4,3.1-3.9,4L357,53.8c-11,2.7-22.5,5.9-22.5,19.9
			c0,11.3,9.3,18.9,21.8,18.9c11.9,0,20.7-4.9,23.7-12.2l0.5,0c1.6,8.3,7.4,10.4,13.2,10.4h4.3v-9.9H395.5z M358.4,82.8
			c-6.5,0-12.3-2.5-12.3-8.8c0-6.2,4.3-8.4,11.8-10.2l20.1-5v6.2C378,74.5,370.4,82.8,358.4,82.8z"/>
		<path class="st2" d="M814.3,162.2l-14.8-4c-4.6-1.2-7.8-3.8-7.8-8c0-4.7,4.8-8.1,12.3-8.1c7.1,0,12.6,1.9,13.6,10H829
			c-0.1-13.4-12.4-20.4-24.9-20.4c-14.1,0-24.5,7.3-24.5,18.6c0,10.4,6.5,15.5,15.4,18l15,4.1c4.8,1.4,8.6,3.8,8.5,8.5
			c-0.1,5.3-5.2,8.6-13.4,8.6c-9.1,0-14.8-4.9-15.6-12.2h-12.4c1.3,14.1,12.1,22.6,27.9,22.6c15.1,0,25.6-7,25.7-19.2
			C830.9,171.3,824.6,164.9,814.3,162.2z"/>
		<path class="st2" d="M615.8,162.2l-14.8-4c-4.6-1.2-7.8-3.8-7.8-8c0-4.7,4.8-8.1,12.3-8.1c7.1,0,12.6,1.9,13.6,10h11.5
			c-0.1-13.4-12.4-20.4-24.9-20.4c-14.1,0-24.5,7.3-24.5,18.6c0,10.4,6.5,15.5,15.4,18l15,4.1c4.8,1.4,8.6,3.8,8.5,8.5
			c-0.1,5.3-5.2,8.6-13.4,8.6c-9.1,0-14.8-4.9-15.6-12.2h-12.4c1.3,14.1,12.1,22.6,27.9,22.6c15.1,0,25.6-7,25.7-19.2
			C632.4,171.3,626.2,164.9,615.8,162.2z"/>
		<path class="st2" d="M602,59.2c0-19.9-11.2-34.1-30.3-34.1c-18.6,0-31.9,14.1-31.9,34.1c0,19.9,13,34.1,32.2,34.1
			c15.6,0,26.6-10.8,28.6-21.6H588c-1.8,6.6-8,11-16,11c-11,0-18.5-8-19.8-19.8h49.6C601.9,61.9,602,60.3,602,59.2z M552.5,52.8
			c1.9-10.8,9.3-17.6,19.1-17.6c10.1,0,16.7,7.2,18,17.6H552.5z"/>
		<path class="st2" d="M528.9,165.9c0-19.9-11.2-34.1-30.3-34.1c-18.6,0-31.9,14.1-31.9,34.1c0,19.9,13,34.1,32.2,34.1
			c15.6,0,26.6-10.8,28.6-21.6h-12.6c-1.8,6.6-8,11-16,11c-11,0-18.5-8-19.8-19.8h49.6C528.8,168.6,528.9,167,528.9,165.9z
			 M479.3,159.5c1.9-10.8,9.3-17.6,19.1-17.6c10.1,0,16.7,7.2,18,17.6H479.3z"/>
		<path class="st2" d="M771.5,165.9c0-19.9-11.2-34.1-30.3-34.1c-18.6,0-31.9,14.1-31.9,34.1c0,19.9,13,34.1,32.2,34.1
			c15.6,0,26.6-10.8,28.6-21.6h-12.6c-1.8,6.6-8,11-16,11c-11,0-18.5-8-19.8-19.8h49.6C771.4,168.6,771.5,167,771.5,165.9z
			 M721.9,159.5c1.9-10.8,9.3-17.6,19.1-17.6c10.1,0,16.7,7.2,18,17.6H721.9z"/>
	</g>
</g>
</svg>
