<svg width="20" height="20" xmlns="http://www.w3.org/2000/svg">
    <path d="M9.999.416C4.477.416 0 4.911 0 10.456c0 4.435 2.865 8.198 6.84 9.527.5.092.683-.218.683-.484 0-.239-.01-.87-.014-1.708-2.782.607-3.369-1.346-3.369-1.346-.454-1.16-1.11-1.469-1.11-1.469-.909-.622.068-.61.068-.61 1.003.072 1.53 1.035 1.53 1.035.893 1.534 2.342 1.092 2.912.834.09-.649.349-1.091.635-1.342-2.22-.254-4.555-1.115-4.555-4.962 0-1.096.39-1.992 1.03-2.695-.104-.253-.446-1.275.097-2.656 0 0 .84-.27 2.75 1.029a9.54 9.54 0 0 1 2.504-.338 9.563 9.563 0 0 1 2.504.34c1.909-1.3 2.747-1.03 2.747-1.03.545 1.383.203 2.403.1 2.657.642.702 1.028 1.598 1.028 2.695 0 3.856-2.337 4.705-4.565 4.953.359.31.679.923.679 1.86 0 1.342-.013 2.424-.013 2.753 0 .269.18.581.688.482A10.04 10.04 0 0 0 20 10.456C20 4.911 15.523.416 9.999.416z" fill="#8F8F8F" fill-rule="nonzero"/>
</svg>
