<svg width="112" height="113" xmlns="http://www.w3.org/2000/svg">
    <path d="m30.662 59.503 25.28 25.274 25.28-25.274H64.773V47.726H47.11v11.777H30.662zm25.28 33.606L16.447 53.614H41.22V41.837h29.443v11.777h24.773L55.942 93.11zM8.226 18.3C6.572 20.51 5.89 22.216 5.89 24.171V97.78c0 4.87 3.963 8.832 8.832 8.832h82.44c4.87 0 8.833-3.963 8.833-8.832V24.17c0-1.937-.67-3.633-2.32-5.841l-1.083-.047H8.226v.017zm6.495 94.2C6.607 112.5 0 105.893 0 97.779V24.17c0-4.175 1.89-7.23 3.533-9.421l7.673-10.035C13.95 1.936 17.112.617 20.61.617h70.35c2.798-.53 5.813.742 8.87 3.81l8.52 10.323c1.649 2.19 3.533 5.246 3.533 9.421V97.78c0 8.114-6.601 14.721-14.721 14.721h-82.44z" fill="#FFF" fill-rule="evenodd"/>
</svg>
