<svg width="185" height="85" xmlns="http://www.w3.org/2000/svg">
    <defs>
        <linearGradient x1="100%" y1="50%" x2="0%" y2="50%" id="a">
            <stop stop-color="#51A7C5" offset="0%"/>
            <stop stop-color="#458CA5" offset="100%"/>
        </linearGradient>
    </defs>
    <g fill="none" fill-rule="evenodd">
        <text font-family="Montserrat-BoldItalic, Montserrat" font-size="10.3" font-style="italic" font-weight="bold" fill="#458CA5" transform="translate(1.329 .25)">
                    <tspan x="0" y="68.313">Le socle de la bibliothèque </tspan>
                    <tspan x="0" y="81.313">scientifique numérique nationale</tspan>
                </text>
        <g fill-rule="nonzero">
            <path d="M6.391.972c.303.01.606.008.91.004l.911-.017c.76-.01 1.517 0 2.261.137-.04 14.308-.02 28.616 0 42.904H0V.93C2.124.87 4.268.91 6.391.973zM96.323.91c0 2.598.062 5.196-.02 7.773-4 0-7.98-.041-11.979.02V44h-10.35c-.041-11.752-.02-23.524 0-35.276-4.02-.103-8.04 0-12.06-.041 0-2.577 0-5.175-.021-7.752C73.376.89 84.839.91 96.323.91zm-49.728.413c1.402.35 2.762.865 4.123 1.422.02 3.113 0 6.206 0 9.32-.392 0-.825.123-1.154-.145-3.773-2.804-8.515-4.495-13.257-4.041-1.773.165-3.65.824-4.742 2.309-1.114 1.464-.66 3.876.969 4.762 1.402.846 3.03 1.155 4.597 1.547 3.093.742 6.247 1.464 9.093 2.907 2.412 1.237 4.597 3.195 5.504 5.834.908 2.701.908 5.69.227 8.433-1.093 4.04-4.433 7.133-8.247 8.638a21.946 21.946 0 0 1-6.185 1.423c-1.587.186-3.175-.124-4.762.082-4.454-.082-8.825-1.298-12.886-3.05-.041-.083-.103-.228-.144-.29-.021-3.175-.042-6.37.02-9.545.433 0 .928-.103 1.278.268 3.175 2.577 7.072 4.268 11.134 4.762 1.855.248 3.731.124 5.546-.309 1.36-.392 2.721-1.237 3.278-2.598.433-1.216.268-2.68-.66-3.628-1.154-1.204-2.744-1.656-4.327-2.053l-.592-.147-.586-.15c-3.917-.887-8.061-1.794-11.236-4.392-2.35-1.917-3.629-4.928-3.794-7.938-.309-3.01.413-6.205 2.33-8.597 2.495-3.134 6.268-4.99 10.144-5.732 4.762-.866 9.67-.288 14.329.908z" fill="url(#a)" transform="translate(1.329 .25)"/>
            <path d="M106.105 2.377c-.083-.66.515-1.279 1.175-1.196h27.648c.7-.124 1.319.536 1.216 1.216-.02 2.412.02 4.825-.02 7.216.04.64-.64 1.052-1.217 1.01-5.587.021-11.175-.02-16.741.021-.02 2-.02 4 0 5.98 5.03.04 10.082 0 15.112.02.66-.103 1.258.536 1.175 1.195.021 2.35.021 4.701 0 7.052.062.66-.536 1.278-1.195 1.195-5.031.02-10.062-.02-15.092.02-.041 2.846-.02 5.691 0 8.516 5.587.062 11.174 0 16.762.02.618-.061 1.298.475 1.216 1.134 0 2.474.02 4.97 0 7.443.041.33-.206.577-.454.763-.783.186-1.608.062-2.412.082-7.216.083-14.432-.02-21.648.021-1.587-.082-3.175.103-4.742-.062-.639-.123-.845-.866-.783-1.422V2.377zM145.215 2.645c-.453-.619.083-1.567.846-1.464 3.855-.02 7.71-.02 11.566 0 .536-.041.928.392 1.175.825 1.814 3.113 3.588 6.247 5.402 9.36.082-.103.247-.31.33-.392 1.69-2.969 3.402-5.938 5.113-8.907.288-.494.721-.99 1.36-.886 3.856 0 7.711-.02 11.546 0 .433-.062.701.31.99.577.103.742-.454 1.299-.784 1.876-3.752 6.02-7.504 12.02-11.236 18.04-.144.206-.144.413 0 .64 4.247 6.803 8.515 13.607 12.762 20.41.124.33.185.825-.144 1.072-.475.495-1.217.268-1.815.31-2.886.02-5.772.02-8.659-.02-.763 0-1.505.082-2.268-.063-.392-.082-.618-.474-.824-.783-2-3.443-4-6.866-6-10.309-.103-.144-.206-.288-.31-.412-2.04 3.567-4.102 7.092-6.164 10.638-.247.433-.598.907-1.134.97-3.855-.042-7.71-.021-11.566 0-.536.061-1.237-.248-1.216-.867-.062-.453.268-.824.474-1.175 4.082-6.556 8.164-13.112 12.267-19.669.124-.206.33-.474.144-.721-3.917-6.37-7.917-12.7-11.855-19.05z" fill="#458CA5"/>
            <path d="M106.95 2.026c9.463-.103 18.927-.02 28.39-.041 0 2.598.041 5.195-.041 7.793-6-.02-11.979-.041-17.978.02-.042 2.557-.062 5.114 0 7.67 5.442.042 10.865-.061 16.308.042-.021 2.577.02 5.154-.021 7.731-5.422 0-10.865-.041-16.287.02-.021 3.402-.062 6.804.02 10.206 6 .083 12-.02 17.999.041 0 2.577.02 5.175 0 7.752-8.721.021-17.463 0-26.184.021-.742-.02-1.484.062-2.206-.062.02-13.751.02-27.462 0-41.193zM145.834 1.985c3.98 0 7.979-.041 11.979.02 2.164 3.485 4.123 7.134 6.226 10.68.082.062.247.227.33.289 2.061-3.67 4.206-7.278 6.267-10.948 4.041-.062 8.103-.041 12.164-.02-4.061 6.576-8.185 13.112-12.267 19.689-.165.185-.165.371 0 .577 4.35 6.99 8.763 13.937 13.072 20.947-3.712.103-7.423 0-11.154.041-.33-.04-.825.124-1.01-.268-1.939-3.278-3.835-6.597-5.753-9.875-.495-.742-.804-1.608-1.422-2.248-2.35 4.124-4.763 8.206-7.134 12.33-.31.103-.66.061-.969.061-3.71-.04-7.443.042-11.174-.04 4.33-7.114 8.803-14.144 13.174-21.216-.062-.495-.474-.886-.7-1.34-2.434-3.897-4.887-7.773-7.32-11.67-1.423-2.35-2.948-4.638-4.309-7.01z" fill="#a9bb1e"/>
        </g>
    </g>
</svg>
