<svg width="132" height="46" xmlns="http://www.w3.org/2000/svg">
    <g fill-rule="nonzero" fill="none">
        <path d="M55.001 11.534v7.873c0 1.076.467 1.637 1.513 1.637 1.044 0 1.528-.561 1.528-1.637v-7.873h2.15v7.888c0 2.479-1.465 3.523-3.678 3.523-2.214 0-3.664-1.044-3.664-3.523v-7.888h2.151M61.743 22.79V11.533h2.355l2.993 6.673h.031v-6.673h1.963V22.79h-2.057l-3.29-7.264h-.03v7.264h-1.965M70.643 11.534h2.151V22.79h-2.15V11.534M73.805 11.534h2.121l1.981 8.044h.03l1.966-8.044h2.104L79.138 22.79H76.69l-2.885-11.256M83.015 22.79V11.533h5.893v1.903h-3.743v2.588h2.854v1.903h-2.854v2.96h3.899v1.903h-6.05M92.611 16.429h1.107c.955 0 1.529-.468 1.529-1.56 0-1.091-.574-1.558-1.529-1.558h-1.107v3.118zm2.901 6.361-1.871-4.584h-1.03v4.584h-2.15V11.533h3.118c2.588 0 3.82 1.248 3.82 3.368 0 1.403-.5 2.416-1.7 2.868l2.12 5.021h-2.307M103.336 14.667c-.358-1.06-.826-1.512-1.573-1.512-.765 0-1.186.467-1.186 1.233 0 1.699 4.802 1.822 4.802 5.345 0 1.935-1.325 3.212-3.585 3.212-1.746 0-3.103-.95-3.68-3.164l2.12-.453c.25 1.357 1.03 1.842 1.669 1.842.748 0 1.325-.502 1.325-1.342 0-2.121-4.803-2.153-4.803-5.301 0-1.934 1.154-3.15 3.384-3.15 1.917 0 3.087 1.139 3.46 2.73l-1.933.56M106.425 11.534h2.152V22.79h-2.152V11.534M116.767 11.534v1.901h-2.51v9.355h-2.15v-9.355h-2.511v-1.901h7.171M123.24 8.618l-2.291 2.276h-1.575l1.45-2.276h2.417zM117.77 22.79V11.534h5.893v1.903h-3.742v2.587h2.853v1.901h-2.853v2.963h3.898v1.902h-6.05M54.876 34.572h.748c1.186 0 1.872-.563 1.872-2.246v-2.963c0-1.59-.53-2.245-1.872-2.245h-.748v7.454zm-2.15-9.355h2.993c2.463 0 3.835 1.06 3.928 3.897v3.462c-.093 2.836-1.465 3.897-3.928 3.897h-2.993V25.217M61.2 36.473V25.217h5.895v1.901h-3.743v2.589h2.853v1.902h-2.853v2.963h3.898v1.9H61.2M72.547 36.473V25.217h2.15v9.355h3.462v1.9h-5.612M81.141 33.136c0 1.248.545 1.59 1.404 1.59.857 0 1.403-.342 1.403-1.59v-4.58c0-1.25-.546-1.593-1.403-1.593-.86 0-1.404.344-1.404 1.593v4.58zm-2.15-4.301c0-2.776 1.464-3.774 3.554-3.774 2.089 0 3.554.998 3.554 3.774v4.021c0 2.775-1.465 3.773-3.554 3.773-2.09 0-3.555-.998-3.555-3.773v-4.021M89.827 30.112h1.106c.953 0 1.529-.468 1.529-1.558 0-1.092-.576-1.56-1.53-1.56h-1.105v3.118zm2.9 6.36-1.871-4.583h-1.03v4.584h-2.15V25.217h3.117c2.588 0 3.82 1.248 3.82 3.368 0 1.402-.499 2.416-1.699 2.868l2.12 5.02h-2.308M98.203 30.112h1.106c.952 0 1.53-.468 1.53-1.558 0-1.092-.578-1.56-1.53-1.56h-1.106v3.118zm2.9 6.36L99.23 31.89h-1.028v4.584H96.05V25.217h3.119c2.588 0 3.82 1.248 3.82 3.368 0 1.402-.5 2.416-1.7 2.868l2.12 5.02h-2.307M107.118 32.202h2.135l-1.044-4.553h-.032l-1.06 4.553zm-3.072 4.27 2.79-11.254h2.761l2.712 11.255h-2.057l-.546-2.37h-2.978l-.608 2.37h-2.074M113.34 25.217h2.15v11.256h-2.15V25.217M117.068 36.473V25.217h2.354l2.994 6.672h.03v-6.672h1.964v11.256h-2.056l-3.29-7.265h-.032v7.265h-1.964M125.914 36.473V25.217h5.892v1.901h-3.741v2.589h2.852v1.902h-2.852v2.963h3.897v1.9h-6.048M46.017 23.076c0 12.603-10.22 22.824-22.824 22.824C10.586 45.9.367 35.68.367 23.076.367 10.47 10.586.25 23.193.25c12.604 0 22.824 10.22 22.824 22.827" fill="#050301"/>
        <path d="M22.85 29.75c-.51.276-1.138.425-1.889.425-2.187 0-3.542-.847-3.542-5.068V11.55h-7.05v13.655c0 7.23 3.861 11.377 10.592 11.377 2.041 0 3.594-.337 5.125-1.083-1.535-1.463-2.636-3.395-3.236-5.75" fill="#FFF"/>
        <path d="M31.653 25.105V11.547h-7.049v13.656c0 7.228 3.863 11.376 10.591 11.376h2.794v-6.405h-2.794c-2.186 0-3.542-.848-3.542-5.07" fill="#F3F13A"/>
    </g>
</svg>
