<?xml version="1.0" encoding="UTF-8" standalone="no"?>
<!-- Generator: Adobe Illustrator 27.9.0, SVG Export Plug-In . SVG Version: 6.00 Build 0)  -->

<svg
   version="1.1"
   id="Calque_1"
   x="0px"
   y="0px"
   viewBox="0 0 577.88405 578.45628"
   xml:space="preserve"
   width="577.88403"
   height="578.4563"
   xmlns="http://www.w3.org/2000/svg"
   xmlns:svg="http://www.w3.org/2000/svg"><defs
   id="defs6" />
<style
   type="text/css"
   id="style1">
	.st0{fill:#00284B;}
	.st1{fill:#FFFFFF;}
</style>
<g
   id="g6"
   transform="matrix(2.8579267,0,0,2.8579267,-561.01101,-915.96551)">
	<path
   class="st0"
   d="M 293.2,320.7 C 291.4,320.6 289.6,320.5 287.8,320.5 262.8,320.5 240.1,331.1 220.3,352.3 202.3,371.5 196.3,387 196.3,405.6 196.3,415.6 198.1,426.5 200.7,439.4 205.6,463.6 220,487 240.2,503.6 255.6,516.3 272.8,522.7 290.9,522.9 300.3,523 309.9,521.3 319.7,517.9 351.3,507 381.4,475.8 393.1,442.1 396.8,431.4 398.6,421 398.5,411.1 398.4,386.9 387.4,365.7 366.3,350.6 340.8,332.1 316.2,322.1 293.2,320.7 Z"
   id="path1" />
	<g
   id="g5">
		<path
   class="st1"
   d="M 257.2,421.9 H 250.3 V 422.1 C 250.2,423.4 249.4,435.2 238.9,435.2 229.5,435.2 224.7,426.7 224.7,410.1 224.7,393.4 229.5,385 238.9,385 249.6,385 250.3,397.6 250.3,398.1 V 398.3 H 257.2 C 257.8,398.3 258.5,398 258.9,397.6 259.3,397.2 259.5,396.6 259.5,396 259.4,392.7 257.7,376.4 238.7,376.4 223.4,376.4 215.3,388 215.3,410.1 215.3,432.2 223.4,443.9 238.7,443.9 257,443.9 259.2,429 259.5,424.4 259.5,423.8 259.3,423.2 258.9,422.7 258.4,422.2 257.8,421.9 257.2,421.9 Z"
   id="path2" />
		<path
   class="st1"
   d="M 365,406.1 V 406.1 L 359,403.5 C 353.3,401 351.2,398.5 351.2,394.1 351.2,388.4 355.4,384.5 361.7,384.5 365.4,384.5 368.4,385.3 372.1,389 L 372.3,389.2 375.5,386.3 C 377.3,384.6 376.8,383 376,382 372.9,378.3 367.9,376.3 361.9,376.3 350.4,376.3 342.1,383.8 342.1,394.1 342.1,404.3 348.5,408.5 355.4,411.6 L 361.5,414.3 C 367.6,417 370.5,419.4 370.5,425.3 370.5,433.3 363.2,435.5 358.9,435.5 355.2,435.5 351.1,434.7 346,429 L 345.8,428.8 342.5,431.7 C 340.8,433.2 340.8,434.5 342.4,436.6 347,442.5 353.7,443.7 358.5,443.7 368.9,443.7 379.5,437.3 379.5,425.1 379.7,414.6 373.8,409.9 365,406.1 Z"
   id="path3" />
		<path
   class="st1"
   d="M 306.1,395.7 C 306.1,385.3 297.7,376.5 287.2,376.5 282.3,376.5 277.8,378.4 274.5,381.4 V 377.8 H 268.2 C 266.3,377.8 265.6,379 265.6,380.5 V 441.3 C 265.6,443 266.6,443.9 268.2,443.9 H 274.5 V 396.1 C 274.5,389.8 279.6,384.7 285.9,384.7 292.2,384.7 297.3,389.8 297.3,396.1 V 443.9 H 303.5 C 305.2,443.9 306.1,442.9 306.1,441.3 306.1,441.3 306.1,395.8 306.1,395.7 Z"
   id="path4" />
		<path
   class="st1"
   d="M 342,381 C 342.3,380.6 342.5,380.1 342.5,379.5 342.5,378.5 341.8,377.6 340.9,377.3 339.1,376.7 337.2,376.4 335.1,376.4 330.2,376.4 325.7,378.3 322.4,381.3 V 377.7 H 316.1 C 314.2,377.7 313.5,378.9 313.5,380.4 V 441.2 C 313.5,442.9 314.5,443.8 316.1,443.8 H 322.4 V 396 C 322.4,389.7 327.5,384.6 333.8,384.6 335.4,384.6 337,385 338.4,385.6 Z"
   id="path5" />
	</g>
</g>
</svg>
