<svg width="16" height="16" viewBox="0 0 16 16" fill="none" xmlns="http://www.w3.org/2000/svg">
<g id="code1" clip-path="url(#clip0_1_2150)">
<path id="Vector" d="M13.879 15.9688H2.13049C1.86865 15.9688 1.65625 15.7564 1.65625 15.4944V0.443116C1.65625 0.181153 1.86865 -0.03125 2.13049 -0.03125H10.6096C10.8716 -0.03125 11.0839 0.181153 11.0839 0.443116C11.0839 0.705079 10.8716 0.917359 10.6096 0.917359H2.60486V15.0202H13.4048V3.71253C13.4048 3.45056 13.6171 3.23816 13.879 3.23816C14.141 3.23816 14.3534 3.45056 14.3534 3.71253V15.4944C14.3534 15.7564 14.141 15.9688 13.879 15.9688Z" fill="#458CA5"/>
<path id="Vector_2" d="M13.879 4.18679H10.6096C10.3477 4.18679 10.1353 3.97439 10.1353 3.71255V0.443135C10.1353 0.251241 10.2509 0.0782668 10.4281 0.00490249C10.6053 -0.0685839 10.8093 -0.0279344 10.9451 0.107686L14.2144 3.3771C14.3501 3.51284 14.3906 3.71682 14.3173 3.89407C14.2439 4.07131 14.0709 4.18679 13.879 4.18679ZM11.0839 3.23818H12.7339L11.0839 1.58816V3.23818Z" fill="#458CA5"/>
<path id="Vector_3" d="M6.02472 9.23252C5.90192 9.23252 5.77924 9.18516 5.68634 9.09067L4.32306 7.70334C4.14166 7.51877 4.14166 7.223 4.32306 7.03843L5.68634 5.6511C5.86994 5.46433 6.17023 5.46164 6.35712 5.64536C6.54401 5.82895 6.54657 6.12925 6.36298 6.31601L5.32636 7.37082L6.36298 8.42563C6.54657 8.61252 6.54401 8.91282 6.35712 9.09641C6.26483 9.18723 6.14472 9.23252 6.02472 9.23252Z" fill="#458CA5"/>
<path id="Vector_4" d="M9.89367 9.23241C9.77367 9.23241 9.65367 9.18713 9.56127 9.09631C9.3745 8.91271 9.37181 8.61242 9.55541 8.42565L10.592 7.37084L9.55541 6.31603C9.37181 6.12914 9.3745 5.82885 9.56127 5.64525C9.74816 5.46166 10.0485 5.46434 10.232 5.65111L11.5953 7.03832C11.7767 7.22289 11.7767 7.51879 11.5953 7.70324L10.232 9.09057C10.1391 9.18505 10.0165 9.23241 9.89367 9.23241Z" fill="#458CA5"/>
<path id="Vector_5" d="M7.26492 9.2325C7.18447 9.2325 7.10293 9.21199 7.02822 9.1689C6.80141 9.03792 6.72366 8.74788 6.85464 8.52095L8.24185 6.11812C8.37283 5.89131 8.66299 5.81343 8.8898 5.94454C9.1166 6.07552 9.19436 6.36556 9.06338 6.59249L7.67617 8.99532C7.58828 9.14742 7.42886 9.2325 7.26492 9.2325Z" fill="#458CA5"/>
<path id="Vector_6" d="M10.9117 11.4471H5.00696C4.745 11.4471 4.53271 11.2347 4.53271 10.9728C4.53271 10.7108 4.745 10.4985 5.00696 10.4985H10.9117C11.1737 10.4985 11.386 10.7108 11.386 10.9728C11.386 11.2347 11.1737 11.4471 10.9117 11.4471Z" fill="#458CA5"/>
<path id="Vector_7" d="M10.9117 13.4393H5.00696C4.745 13.4393 4.53271 13.2269 4.53271 12.9651C4.53271 12.7031 4.745 12.4907 5.00696 12.4907H10.9117C11.1737 12.4907 11.386 12.7031 11.386 12.9651C11.386 13.2269 11.1737 13.4393 10.9117 13.4393Z" fill="#458CA5"/>
</g>
<defs>
<clipPath id="clip0_1_2150">
<rect width="16" height="16" fill="white"/>
</clipPath>
</defs>
</svg>
