<svg width="598" height="349" viewBox="0 0 598 349" fill="none" xmlns="http://www.w3.org/2000/svg">
<rect width="598" height="349" fill="white"/>
<path d="M25.7145 141.109C14.602 141.766 5.21578 150.854 5 163.226V172.314C5.21578 184.248 14.8178 194.102 26.7934 194.102C38.7689 194.102 48.2631 187.89 48.2631 175.737L47.9394 175.408H39.3084L38.9847 175.737C38.9847 182.744 33.6982 184.686 26.7934 184.686C19.7807 184.686 14.0626 178.993 14.0626 171.985V163.226C14.0626 156.109 19.7807 150.416 26.7934 150.416C33.6982 150.416 39.3084 153.276 39.3084 160.392L39.632 160.721H48.2631L48.5867 160.392C48.5867 148.13 38.7689 141.109 26.7934 141.109H25.7145Z" fill="black"/>
<path d="M81.0762 141.109C69.2085 141.109 59.3907 150.964 59.3907 163.226V172.314C59.4986 184.358 69.3164 194.102 81.0762 194.102C93.0518 194.102 102.87 184.358 103.085 172.314V163.226C103.085 150.964 93.1597 141.109 81.0762 141.109ZM93.807 172.314C93.5912 179.102 87.981 184.686 81.0762 184.686C74.2793 184.686 68.5612 178.993 68.5612 171.985V163.226C68.5612 156.109 74.2793 150.526 81.0762 150.526C88.0889 150.526 93.807 156.109 93.807 163.226V172.314Z" fill="black"/>
<path d="M124.783 141.109H115.505V172.314C115.721 184.358 125.323 194.102 137.298 194.102C149.274 194.102 158.876 184.358 159.092 172.314V171.985V141.109H149.813V171.985C149.813 178.993 144.311 184.686 137.298 184.686C130.286 184.686 124.783 178.993 124.783 171.985V141.109Z" fill="black"/>
<path d="M182.225 141.109H173.162V216H182.225V190.051C185.785 192.569 190.208 194.102 194.955 194.102C206.931 194.102 216.749 184.248 216.749 171.985V163.226C216.749 150.964 206.931 141.109 194.955 141.109C190.208 141.109 185.785 142.642 182.225 145.27V141.109ZM194.955 150.526C201.86 150.526 207.47 156.109 207.47 163.226V172.314C207.362 179.102 201.752 184.686 194.955 184.686C187.943 184.686 182.225 178.993 182.225 171.985V163.226C182.225 156.109 187.943 150.526 194.955 150.526Z" fill="black"/>
<path d="M249.308 141.109C237.225 141.109 227.731 150.964 227.515 162.898V172.314C227.731 184.139 237.225 193.883 248.984 194.102H271.102V184.686H248.984C242.295 184.577 236.901 178.993 236.793 172.314H271.102V163.226C271.102 150.964 261.392 141.109 249.308 141.109ZM249.308 150.416C256.213 150.416 261.715 156 261.823 162.898H236.793C236.901 156 242.403 150.416 249.308 150.416Z" fill="black"/>
<path d="M292.795 141.109H283.624V194.102H292.795V163.226C292.795 156.219 298.189 150.635 305.094 150.526H314.264V141.109H305.094C300.455 141.219 296.247 142.642 292.795 145.161V141.109Z" fill="black"/>
<path d="M332.234 141.109H322.956V194.102H332.234V141.109Z" fill="black"/>
<path d="M355.542 141.109H346.263V162.131V163.226V194.102H355.542V163.226C355.542 156.109 361.152 150.526 368.057 150.526C374.961 150.526 380.572 156 380.787 162.898V163.226V194.102H389.85V163.226V162.898C389.634 150.854 380.032 141.109 368.057 141.109C363.417 141.109 359.102 142.642 355.542 145.161V141.109Z" fill="black"/>
<path d="M423.016 163.993C414.925 163.993 408.236 170.781 408.236 179.102C408.236 187.423 414.925 194.102 423.016 194.102C431.216 194.102 437.905 187.423 437.905 179.102C437.905 170.781 431.216 163.993 423.016 163.993ZM423.016 173.409C426.037 173.409 428.626 176.036 428.626 179.102C428.626 182.168 426.037 184.686 423.016 184.686C419.995 184.686 417.406 182.168 417.406 179.102C417.406 176.036 419.995 173.409 423.016 173.409Z" fill="black"/>
<path d="M476.271 141.109C464.403 141.109 454.585 150.964 454.585 163.226V172.314C454.693 184.358 464.511 194.102 476.271 194.102C488.246 194.102 498.064 184.358 498.28 172.314V163.226C498.28 150.964 488.354 141.109 476.271 141.109ZM489.001 172.314C488.786 179.102 483.176 184.686 476.271 184.686C469.474 184.686 463.756 178.993 463.756 171.985V163.226C463.756 156.109 469.474 150.526 476.271 150.526C483.283 150.526 489.001 156.109 489.001 163.226V172.314Z" fill="black"/>
<path d="M519.654 141.109H510.484V194.102H519.654V163.226C519.654 156.219 525.049 150.635 531.954 150.526H541.124V141.109H531.954C527.314 141.219 523.107 142.642 519.654 145.161V141.109Z" fill="black"/>
<path d="M570.207 141C556.397 141 548.413 151.073 548.413 163.117V172.204C548.629 184.139 558.231 193.993 570.207 193.993C574.846 193.993 579.269 192.46 582.722 189.942V194.212C582.614 201 577.004 206.584 570.207 206.584C563.41 206.584 557.476 201.219 557.476 193.555H548.413C548.413 206.036 558.123 216 570.207 216C582.29 216 592 206.036 592 193.883V141.109H582.722V145.051C579.269 142.533 574.846 141 570.207 141ZM570.207 150.307C577.111 150.307 582.722 156 582.722 163.117V171.876C582.722 178.883 577.111 184.577 570.207 184.577C563.194 184.577 557.476 178.883 557.476 171.876V162.788C557.692 155.891 563.302 150.307 570.207 150.307Z" fill="black"/>
</svg>
