<svg width="17" height="16" viewBox="0 0 17 16" fill="none" xmlns="http://www.w3.org/2000/svg">
<g id="pen copie" clip-path="url(#clip0_1903_27076)">
<path id="Vector" d="M14.2737 1.09866C13.4673 0.293651 12.1614 0.293651 11.355 1.09866L10.6243 1.83329L2.84682 9.60666L2.83029 9.62332C2.82629 9.62733 2.82629 9.63159 2.82203 9.63159C2.81377 9.64398 2.80137 9.65625 2.79323 9.66865C2.79323 9.67278 2.78897 9.67278 2.78897 9.67691C2.78071 9.68931 2.7767 9.69757 2.76831 9.70997C2.76431 9.7141 2.76431 9.71811 2.76018 9.72237C2.75604 9.73476 2.75191 9.74303 2.74765 9.75542C2.74765 9.75943 2.74365 9.75943 2.74365 9.76369L1.01805 14.9527C0.967434 15.1005 1.00592 15.2641 1.1171 15.3737C1.19522 15.4508 1.30059 15.4939 1.41023 15.4935C1.45504 15.4928 1.49946 15.4858 1.54233 15.4729L6.72738 13.7432C6.73138 13.7432 6.73138 13.7432 6.73564 13.7392C6.74868 13.7353 6.76121 13.7297 6.7727 13.7225C6.77593 13.7221 6.77877 13.7207 6.78109 13.7185C6.79336 13.7102 6.80989 13.7018 6.82229 13.6936C6.83455 13.6854 6.84708 13.673 6.85948 13.6648C6.86361 13.6605 6.86761 13.6605 6.86761 13.6565C6.87187 13.6524 6.88014 13.6484 6.88427 13.64L15.3924 5.13185C16.1974 4.32542 16.1974 3.0195 15.3924 2.2132L14.2737 1.09866ZM6.59527 12.773L3.72208 9.89992L10.9133 2.70868L13.7865 5.58174L6.59527 12.773ZM3.31738 10.6636L5.82745 13.1736L2.05834 14.4285L3.31738 10.6636ZM14.8104 4.55385L14.3728 4.99561L11.4995 2.12229L11.9413 1.68066C12.4247 1.19771 13.2081 1.19771 13.6916 1.68066L14.8144 2.80346C15.2941 3.289 15.2923 4.07064 14.8104 4.55385Z" fill="#458CA5"/>
</g>
<defs>
<clipPath id="clip0_1903_27076">
<rect width="16" height="16" fill="white" transform="translate(0.5)"/>
</clipPath>
</defs>
</svg>
