<svg width="19" height="18" xmlns="http://www.w3.org/2000/svg">
    <path d="M12.497 1.725C8.637-1.649 2.65.26 1.32 5.265c-.558 2.1-.02 3.076-.02 4.653 0 1.62-.663 3.968-.663 3.968 0 .287.255.567.569.485 1.122-.293 2.907-.874 5.042-.294 7.18 1.946 11.786-7.512 6.25-12.352m5.641 16.305a.583.583 0 0 1-.144-.02c-5.676-1.424-5.295.177-8.448-.667a7.074 7.074 0 0 1-2.573-1.31c5.728.702 10.502-4.288 9.657-10.165.865.9 1.5 2.015 1.768 3.263.764 3.542-1.175 2.943.223 8.327.082.315-.197.572-.483.572" fill="#FFF" fill-rule="evenodd"/>
</svg>
