<svg width="20" height="20" viewBox="0 0 20 20" fill="none" xmlns="http://www.w3.org/2000/svg">
<path d="M19.6633 13.7984C19.4393 13.574 19.1667 13.4619 18.8462 13.4619H13.714C13.5458 13.9106 13.2633 14.2791 12.8667 14.5675C12.4699 14.856 12.0273 15.0003 11.5387 15.0003H8.46143C7.97271 15.0003 7.52996 14.8559 7.13344 14.5675C6.73675 14.2791 6.45439 13.9106 6.28613 13.4619H1.15383C0.833379 13.4619 0.560961 13.574 0.336534 13.7984C0.11215 14.0226 0 14.295 0 14.6156V18.4618C0 18.7821 0.11215 19.0549 0.336534 19.2789C0.560918 19.5032 0.833337 19.6153 1.15383 19.6153H18.8463C19.1667 19.6153 19.4393 19.5032 19.6635 19.2789C19.8879 19.0546 20 18.7821 20 18.4618V14.6156C20 14.295 19.8879 14.0229 19.6633 13.7984ZM15.1565 17.8488C15.004 18.0011 14.8237 18.0773 14.6153 18.0773C14.407 18.0773 14.2269 18.0011 14.0745 17.8488C13.9223 17.6967 13.8463 17.5163 13.8463 17.3079C13.8463 17.0996 13.9223 16.9191 14.0745 16.7671C14.2269 16.615 14.407 16.5386 14.6153 16.5386C14.8237 16.5386 15.004 16.615 15.1565 16.7671C15.3086 16.9191 15.3847 17.0996 15.3847 17.3079C15.3847 17.5163 15.3086 17.6966 15.1565 17.8488ZM18.2332 17.8488C18.081 18.0011 17.9007 18.0773 17.6923 18.0773C17.484 18.0773 17.3038 18.0011 17.1515 17.8488C16.9994 17.6967 16.9233 17.5163 16.9233 17.3079C16.9233 17.0996 16.9994 16.9191 17.1515 16.7671C17.3037 16.615 17.4839 16.5386 17.6923 16.5386C17.9006 16.5386 18.081 16.615 18.2332 16.7671C18.3854 16.9191 18.4616 17.0996 18.4616 17.3079C18.4616 17.5163 18.3856 17.6966 18.2332 17.8488Z" fill="#458CA5"/>
<path d="M4.61521 7.30802H7.69214V12.6928C7.69214 12.9011 7.7683 13.0814 7.92048 13.2336C8.07275 13.3857 8.25306 13.4621 8.46132 13.4621H11.5385C11.7468 13.4621 11.927 13.3858 12.0794 13.2336C12.2315 13.0815 12.3076 12.9011 12.3076 12.6928V7.30802H15.3846C15.7213 7.30802 15.9577 7.14767 16.0937 6.82726C16.23 6.5148 16.1738 6.2383 15.9254 5.99788L10.5407 0.613192C10.3963 0.460922 10.2163 0.384766 9.99984 0.384766C9.78363 0.384766 9.60332 0.460922 9.45901 0.613192L4.07442 5.99788C3.82595 6.2383 3.76992 6.51464 3.90607 6.82726C4.04242 7.14784 4.27876 7.30802 4.61521 7.30802Z" fill="#458CA5"/>
</svg>
