<?xml version="1.0" encoding="UTF-8"?>
<svg xmlns="http://www.w3.org/2000/svg" width="24" height="24" viewBox="0 0 24 24" fill="#458ca5">
  <path d="M13.8749 2H4.29154C3.02488 2 1.99988 3.025 1.99988 4.29167V17.2083C1.99988 18.475 3.02488 19.5 4.29154 19.5H11.0749C10.3415 18.5 9.91655 17.2833 9.91655 15.9583C9.91655 12.625 12.6249 9.91667 15.9582 9.91667C16.0249 9.91667 16.0999 9.91667 16.1665 9.925V4.29167C16.1665 3.025 15.1415 2 13.8749 2ZM5.33321 5.33333H8.66655C9.12488 5.33333 9.49988 5.70833 9.49988 6.16667C9.49988 6.625 9.12488 7 8.66655 7H5.33321C4.87488 7 4.49988 6.625 4.49988 6.16667C4.49988 5.70833 4.87488 5.33333 5.33321 5.33333ZM9.49988 13.6667H5.33321C4.87488 13.6667 4.49988 13.2917 4.49988 12.8333C4.49988 12.375 4.87488 12 5.33321 12H9.49988C9.95821 12 10.3332 12.375 10.3332 12.8333C10.3332 13.2917 9.95821 13.6667 9.49988 13.6667ZM12.8332 10.3333H5.33321C4.87488 10.3333 4.49988 9.95833 4.49988 9.5C4.49988 9.04167 4.87488 8.66667 5.33321 8.66667H12.8332C13.2915 8.66667 13.6665 9.04167 13.6665 9.5C13.6665 9.95833 13.2915 10.3333 12.8332 10.3333Z"></path>
  <path d="M15.9582 20.3333C13.5457 20.3333 11.5832 18.3708 11.5832 15.9583C11.5832 13.5458 13.5457 11.5833 15.9582 11.5833C18.3707 11.5833 20.3332 13.5458 20.3332 15.9583C20.3332 18.3708 18.3707 20.3333 15.9582 20.3333ZM15.9582 13.25C14.4649 13.25 13.2499 14.465 13.2499 15.9583C13.2499 17.4517 14.4649 18.6667 15.9582 18.6667C17.4515 18.6667 18.6665 17.4517 18.6665 15.9583C18.6665 14.465 17.4515 13.25 15.9582 13.25Z"></path>
  <path d="M21.1665 22C20.9532 22 20.7399 21.9183 20.5774 21.7558L17.869 19.0475C17.5432 18.7217 17.5432 18.195 17.869 17.8692C18.1949 17.5433 18.7215 17.5433 19.0474 17.8692L21.7557 20.5775C22.0815 20.9033 22.0815 21.43 21.7557 21.7558C21.5932 21.9183 21.3799 22 21.1665 22Z"></path>
</svg>
