<?xml version="1.0" encoding="utf-8"?>
<!-- Generator: Adobe Illustrator 27.5.0, SVG Export Plug-In . SVG Version: 6.00 Build 0)  -->
<svg version="1.1" id="Calque_1" xmlns="http://www.w3.org/2000/svg" xmlns:xlink="http://www.w3.org/1999/xlink" x="0px" y="0px"
	 viewBox="0 0 218.3 37.3" style="enable-background:new 0 0 218.3 37.3;" xml:space="preserve">
<style type="text/css">
	.st0{fill:#FFFFFF;}
	.st1{fill:#C3D331;}
</style>
<g>
	<path class="st0" d="M8.8,0.5v36.4H0V0.5H8.8z"/>
	<path class="st0" d="M33.9,11.4c-0.1-1.3-0.6-2.3-1.6-3c-0.9-0.7-2.3-1.1-4-1.1c-1.1,0-2.1,0.1-2.8,0.4s-1.3,0.7-1.7,1.2
		c-0.4,0.5-0.6,1.1-0.6,1.8c0,0.5,0.1,1,0.3,1.4c0.2,0.4,0.6,0.8,1.1,1.1c0.5,0.3,1,0.6,1.7,0.8c0.7,0.2,1.4,0.4,2.2,0.6l3.1,0.7
		c1.8,0.4,3.4,0.9,4.8,1.6c1.4,0.7,2.5,1.4,3.5,2.3c0.9,0.9,1.7,1.9,2.1,3.1s0.7,2.5,0.7,3.9c0,2.3-0.6,4.3-1.7,5.9
		c-1.1,1.6-2.8,2.9-4.9,3.8c-2.1,0.9-4.7,1.3-7.8,1.3c-3,0-5.7-0.5-8-1.4c-2.3-0.9-4-2.3-5.3-4.2c-1.3-1.9-1.9-4.2-1.9-7h8.4
		c0.1,1.2,0.4,2.1,0.9,2.9c0.6,0.8,1.3,1.4,2.3,1.8c1,0.4,2.1,0.6,3.4,0.6c1.2,0,2.2-0.2,3-0.5c0.8-0.3,1.5-0.8,1.9-1.3
		c0.4-0.6,0.7-1.2,0.7-2c0-0.7-0.2-1.3-0.6-1.8c-0.4-0.5-1.1-0.9-1.9-1.3c-0.9-0.4-2-0.7-3.3-1l-3.8-0.9c-3.1-0.7-5.6-1.9-7.4-3.5
		c-1.8-1.6-2.7-3.8-2.7-6.6c0-2.2,0.6-4.2,1.8-5.9c1.2-1.7,2.9-3,5.1-4C23.2,0.5,25.7,0,28.4,0c2.8,0,5.3,0.5,7.3,1.4
		c2.1,1,3.7,2.3,4.8,4c1.1,1.7,1.7,3.7,1.8,6H33.9z"/>
	<path class="st0" d="M46.1,7.6V0.5h30.7v7.1h-11v29.2h-8.7V7.6H46.1z"/>
	<path class="st1" d="M81.2,36.9V0.5h25.4v7.1H90v7.5h15.3v7.2H90v7.5h16.6v7.1H81.2z"/>
	<path class="st1" d="M120.9,0.5l6.6,11.5h0.3l6.7-11.5h9.8l-11,18.2l11.3,18.2h-10.1l-6.8-11.6h-0.3l-6.8,11.6h-10L122,18.7
		L111,0.5H120.9z"/>
	<path class="st0" d="M172.5,36.9h-10.7V0.5h11.3c3.5,0,6.4,0.7,8.9,2.2c2.5,1.4,4.4,3.5,5.7,6.2c1.3,2.7,2,5.9,2,9.7
		c0,3.8-0.7,7.1-2,9.8c-1.3,2.7-3.3,4.8-5.9,6.3C179.2,36.1,176.1,36.9,172.5,36.9z M165.1,33.9h7.1c3.1,0,5.7-0.6,7.8-1.8
		c2.1-1.2,3.7-3,4.7-5.3c1.1-2.3,1.6-5,1.6-8.2c0-3.1-0.5-5.8-1.6-8.1c-1-2.3-2.5-4-4.5-5.2c-2-1.2-4.5-1.8-7.4-1.8h-7.8V33.9z"/>
	<path class="st0" d="M197.7,36.9V0.5h3.3v33.4h17.3v3H197.7z"/>
</g>
</svg>
