<svg width="1920" height="323" viewBox="0 0 1920 323" fill="none" xmlns="http://www.w3.org/2000/svg">
<g opacity="0.07">
<mask id="mask0_399_31315" style="mask-type:alpha" maskUnits="userSpaceOnUse" x="0" y="0" width="1920" height="323">
<rect width="1920" height="323" fill="#F6F9FA"/>
</mask>
<g mask="url(#mask0_399_31315)">
<path opacity="0.2" d="M58.1407 192.709L-50.626 185.704L51.2674 263.242L58.1407 192.709Z" fill="#458CA5" stroke="#458CA5"/>
<path opacity="0.1" d="M58.4507 191.727L104.857 129.785L-49.79 184.756L58.4507 191.727Z" fill="#458CA5" stroke="#458CA5"/>
<path opacity="0.1" d="M208.391 186.612L107.219 129.876L173.823 301.598L208.391 186.612Z" fill="#458CA5" stroke="#458CA5"/>
<path opacity="0.2" d="M208.641 186.753L110.32 131.615L262.228 262.857L208.641 186.753Z" fill="#458CA5" stroke="#458CA5"/>
<path opacity="0.2" d="M416.038 391.568L328.224 186.894L335.031 352.571L416.038 391.568Z" fill="#458CA5" stroke="#458CA5"/>
<path opacity="0.1" d="M334.863 352.49L413.597 390.393L268.456 269.442L334.863 352.49Z" fill="#458CA5" stroke="#458CA5"/>
<path d="M-359.487 215.88L-391.6 275.271L-505.954 346.403L-396.984 357.858L-474.022 237.308L-307.194 273.43L-165.578 211.953L-62.6438 237.184L58.6885 192.243L106.153 128.775L208.985 186.372L51.6782 264.182L-62.6438 237.184L-136.75 260.692L-165.578 211.953L-52.2473 185.098L-229.359 134.906L-200.993 346.423" stroke="#458CA5" stroke-width="2" stroke-miterlimit="10"/>
<path d="M-52.2477 185.098L58.6881 192.243L264.978 265.893L51.6778 264.182L106.152 128.775L-52.2477 185.098Z" stroke="#458CA5" stroke-width="2" stroke-miterlimit="10"/>
<path d="M58.6886 192.243L208.985 186.372L264.978 265.892L327.613 184.202L515.493 315.774L417.211 392.564L334.544 352.891L264.978 265.892L173.883 303.136L51.6782 264.182L-52.2472 185.098L-136.75 260.692L-302.283 205.179L-200.993 346.423L-391.6 275.271L-471.021 407.07L-557.515 382.896L-505.954 346.403" stroke="#458CA5" stroke-width="2" stroke-miterlimit="10"/>
<path d="M417.211 392.564L327.613 184.202L334.544 352.891L515.493 315.774L173.883 303.136L-52.2472 185.098L-396.984 357.858L-606.98 234.464L-474.022 237.308" stroke="#458CA5" stroke-width="2" stroke-miterlimit="10"/>
<path d="M515.493 315.774L208.985 186.372" stroke="#458CA5" stroke-width="2" stroke-miterlimit="10"/>
<path d="M-589.054 283.386L-368.376 428.678L-238.901 311.17L-475.54 175.397L-110.274 288.737L-67.0431 139.021L-303.022 177.604L60.4124 288.073L250.485 134.123L-22.363 146.235L149.279 364.306L158.55 82.3608L297.325 265.686L-123.31 190.7L-375.206 309.524L-589.054 283.386Z" stroke="#458CA5" stroke-width="2.5" stroke-miterlimit="10"/>
<path d="M297.325 265.686L379.642 290.007L506.56 230.777L510.076 291.03L345.881 223.699L297.325 265.686ZM297.325 265.686L149.278 364.306L250.484 134.123L158.549 82.3608L60.4118 288.073L-22.3637 146.235L-67.0438 139.021L-123.31 190.7L-238.902 311.17L-303.023 177.604L-375.207 309.524L-110.274 288.737L-22.3637 146.235L345.881 223.699" stroke="#458CA5" stroke-width="2.5" stroke-miterlimit="10"/>
<path d="M345.881 223.699L250.484 134.123L510.076 291.03L379.642 290.007L345.881 223.699Z" stroke="#458CA5" stroke-width="2.5" stroke-miterlimit="10"/>
<path d="M263.944 261.23C266.791 260.7 269.505 262.407 270.064 264.956L263.944 261.23ZM263.944 261.23C261.11 261.762 259.342 264.289 259.898 266.826C260.457 269.375 263.171 271.082 266.018 270.552C268.853 270.02 270.62 267.493 270.064 264.956L263.944 261.23Z" fill="#458CA5" stroke="#458CA5"/>
<path d="M174.591 306.291C176.477 305.939 177.653 304.296 177.364 302.635L177.336 302.506C176.96 300.79 175.123 299.62 173.178 299.986L173.178 299.986C171.244 300.348 170.058 302.065 170.433 303.768C170.812 305.488 172.647 306.654 174.591 306.291Z" fill="#458CA5" stroke="#458CA5"/>
<path d="M518.911 315.014L518.939 315.142C519.314 316.845 518.128 318.562 516.194 318.924L516.194 318.924C514.249 319.29 512.412 318.12 512.036 316.405L518.911 315.014ZM518.911 315.014C518.473 313.37 516.68 312.268 514.784 312.622L518.911 315.014ZM514.784 312.622C512.851 312.984 511.664 314.701 512.036 316.404L514.784 312.622Z" fill="#458CA5" stroke="#458CA5"/>
<path d="M510.778 294.182C508.833 294.545 506.995 293.375 506.62 291.66L510.778 294.182ZM510.778 294.182C512.714 293.821 513.898 292.104 513.526 290.4L510.778 294.182ZM513.526 290.4C513.15 288.684 511.312 287.514 509.368 287.877L513.526 290.4ZM509.367 287.877C507.434 288.239 506.247 289.956 506.62 291.66L509.367 287.877Z" fill="#458CA5" stroke="#458CA5"/>
<path d="M381.801 289.384L381.8 289.383C381.555 288.255 380.338 287.468 379.031 287.714L379.03 287.714C377.732 287.956 376.96 289.099 377.206 290.212L377.206 290.214C377.452 291.342 378.668 292.128 379.975 291.882L379.976 291.882C381.274 291.641 382.046 290.497 381.801 289.384Z" fill="#458CA5" stroke="#458CA5"/>
<path d="M299.621 265.273L299.621 265.272C299.375 264.144 298.158 263.357 296.852 263.603L296.851 263.604C295.553 263.845 294.781 264.988 295.026 266.102L295.026 266.103C295.272 267.231 296.489 268.018 297.795 267.772L297.796 267.771C299.094 267.53 299.866 266.387 299.621 265.273ZM300.109 265.166C299.799 263.742 298.299 262.822 296.759 263.112L300.109 265.166Z" fill="#458CA5" stroke="#458CA5"/>
<path d="M348.178 223.286L348.177 223.285C347.932 222.157 346.715 221.37 345.408 221.616L345.407 221.616C344.109 221.858 343.337 223.001 343.583 224.114L343.583 224.115C343.829 225.243 345.045 226.03 346.352 225.784L346.353 225.784C347.651 225.542 348.423 224.399 348.178 223.286Z" fill="#458CA5" stroke="#458CA5"/>
<path d="M252.78 133.707L252.78 133.706C252.534 132.578 251.317 131.791 250.011 132.037L250.01 132.037C248.712 132.279 247.94 133.422 248.185 134.535L248.185 134.536C248.431 135.664 249.648 136.451 250.954 136.205L250.955 136.205C252.253 135.963 253.025 134.82 252.78 133.707ZM253.268 133.599C252.958 132.176 251.458 131.256 249.918 131.546L253.268 133.599Z" fill="#458CA5" stroke="#458CA5"/>
<path d="M508.931 230.704L508.931 230.703C508.685 229.575 507.469 228.788 506.162 229.034L506.161 229.034C504.863 229.276 504.091 230.419 504.337 231.532L504.337 231.533C504.583 232.661 505.799 233.448 507.106 233.202L507.107 233.202C508.405 232.96 509.177 231.817 508.931 230.704Z" fill="#458CA5" stroke="#458CA5"/>
<path d="M208.28 183.223L208.281 183.223C210.165 182.868 211.949 183.956 212.399 185.584L212.435 185.746C212.81 187.449 211.624 189.166 209.691 189.528C207.746 189.891 205.908 188.721 205.532 187.006L208.28 183.223ZM208.28 183.223C206.347 183.585 205.16 185.302 205.532 187.006L208.28 183.223Z" fill="#458CA5" stroke="#458CA5"/>
<path d="M63.3211 287.727L63.3209 287.726C63.0751 286.598 61.8583 285.811 60.5519 286.057L60.5509 286.057C59.253 286.299 58.4809 287.442 58.7262 288.555L58.7265 288.556C58.9722 289.684 60.189 290.471 61.4955 290.225L61.4965 290.225C62.7944 289.983 63.5665 288.84 63.3211 287.727Z" fill="#458CA5" stroke="#458CA5"/>
<path d="M52.3835 267.338C54.2689 266.985 55.4445 265.343 55.156 263.681L55.1277 263.552C54.7523 261.836 52.9145 260.667 50.9702 261.033L50.9696 261.033C49.0363 261.394 47.8499 263.111 48.2251 264.814L48.2252 264.815C48.6006 266.531 50.4386 267.701 52.3835 267.338Z" fill="#458CA5" stroke="#458CA5"/>
<path d="M105.545 125.606L105.545 125.606C107.47 125.243 109.291 126.387 109.691 128.074V128.076L109.703 128.128C110.075 129.832 108.888 131.549 106.955 131.911C105.01 132.274 103.172 131.104 102.797 129.389L105.545 125.606ZM105.545 125.606C103.611 125.968 102.424 127.685 102.797 129.388L105.545 125.606Z" fill="#458CA5" stroke="#458CA5"/>
<path d="M62.1683 191.753C62.4475 193.41 61.2732 195.043 59.3932 195.395C57.4484 195.758 55.6104 194.588 55.235 192.873L55.2348 192.872C54.8597 191.169 56.0461 189.452 57.9793 189.09L62.1683 191.753ZM62.1683 191.753L62.1376 191.613C61.7621 189.897 59.9243 188.727 57.9794 189.09L62.1683 191.753Z" fill="#458CA5" stroke="#458CA5"/>
<path d="M160.848 81.9481L160.848 81.9469C160.602 80.819 159.386 80.0321 158.079 80.2782L158.078 80.2784C156.78 80.52 156.008 81.6631 156.254 82.7764L156.254 82.7776C156.5 83.9055 157.716 84.6924 159.023 84.4464L159.024 84.4462C160.322 84.2045 161.094 83.0614 160.848 81.9481Z" fill="#458CA5" stroke="#458CA5"/>
<path d="M332.079 184.658L332.079 184.658C331.588 182.407 329.185 180.896 326.666 181.366L326.666 181.366C324.153 181.834 322.597 184.074 323.085 186.308L323.085 186.309C323.576 188.56 325.979 190.071 328.498 189.601L328.498 189.601C331.011 189.133 332.567 186.893 332.079 184.658Z" fill="#458CA5" stroke="#458CA5"/>
<path opacity="0.2" d="M1904.86 195.709L2013.63 188.704L1911.73 266.242L1904.86 195.709Z" fill="#458CA5" stroke="#458CA5"/>
<path opacity="0.1" d="M1904.55 194.727L1858.14 132.785L2012.79 187.756L1904.55 194.727Z" fill="#458CA5" stroke="#458CA5"/>
<path opacity="0.1" d="M1754.61 189.612L1855.78 132.876L1789.18 304.598L1754.61 189.612Z" fill="#458CA5" stroke="#458CA5"/>
<path opacity="0.2" d="M1754.36 189.753L1852.68 134.615L1700.77 265.857L1754.36 189.753Z" fill="#458CA5" stroke="#458CA5"/>
<path opacity="0.2" d="M1546.96 394.568L1634.78 189.894L1627.97 355.571L1546.96 394.568Z" fill="#458CA5" stroke="#458CA5"/>
<path opacity="0.1" d="M1628.14 355.49L1549.4 393.393L1694.54 272.442L1628.14 355.49Z" fill="#458CA5" stroke="#458CA5"/>
<path d="M2322.49 218.88L2354.6 278.271L2468.95 349.403L2359.98 360.858L2437.02 240.308L2270.19 276.43L2128.58 214.953L2025.64 240.184L1904.31 195.243L1856.85 131.775L1754.01 189.372L1911.32 267.182L2025.64 240.184L2099.75 263.692L2128.58 214.953L2015.25 188.098L2192.36 137.906L2163.99 349.423" stroke="#458CA5" stroke-width="2" stroke-miterlimit="10"/>
<path d="M2015.25 188.098L1904.31 195.243L1698.02 268.893L1911.32 267.182L1856.85 131.775L2015.25 188.098Z" stroke="#458CA5" stroke-width="2" stroke-miterlimit="10"/>
<path d="M1904.31 195.243L1754.01 189.372L1698.02 268.892L1635.39 187.202L1447.51 318.774L1545.79 395.564L1628.46 355.891L1698.02 268.892L1789.12 306.136L1911.32 267.182L2015.25 188.098L2099.75 263.692L2265.28 208.179L2163.99 349.423L2354.6 278.271L2434.02 410.07L2520.51 385.896L2468.95 349.403" stroke="#458CA5" stroke-width="2" stroke-miterlimit="10"/>
<path d="M1545.79 395.564L1635.39 187.202L1628.46 355.891L1447.51 318.774L1789.12 306.136L2015.25 188.098L2359.98 360.858L2569.98 237.464L2437.02 240.308" stroke="#458CA5" stroke-width="2" stroke-miterlimit="10"/>
<path d="M1447.51 318.774L1754.01 189.372" stroke="#458CA5" stroke-width="2" stroke-miterlimit="10"/>
<path d="M2552.05 286.386L2331.38 431.678L2201.9 314.17L2438.54 178.397L2073.27 291.737L2030.04 142.021L2266.02 180.604L1902.59 291.073L1712.52 137.123L1985.36 149.235L1813.72 367.306L1804.45 85.3608L1665.67 268.686L2086.31 193.7L2338.21 312.524L2552.05 286.386Z" stroke="#458CA5" stroke-width="2.5" stroke-miterlimit="10"/>
<path d="M1665.68 268.686L1583.36 293.007L1456.44 233.777L1452.92 294.03L1617.12 226.699L1665.68 268.686ZM1665.68 268.686L1813.72 367.306L1712.52 137.123L1804.45 85.3608L1902.59 291.073L1985.36 149.235L2030.04 142.021L2086.31 193.7L2201.9 314.17L2266.02 180.604L2338.21 312.524L2073.27 291.737L1985.36 149.235L1617.12 226.699" stroke="#458CA5" stroke-width="2.5" stroke-miterlimit="10"/>
<path d="M1617.12 226.699L1712.52 137.123L1452.92 294.03L1583.36 293.007L1617.12 226.699Z" stroke="#458CA5" stroke-width="2.5" stroke-miterlimit="10"/>
<path d="M1699.06 264.23C1696.21 263.7 1693.5 265.407 1692.94 267.956L1699.06 264.23ZM1699.06 264.23C1701.89 264.762 1703.66 267.289 1703.1 269.826C1702.54 272.375 1699.83 274.082 1696.98 273.552C1694.15 273.02 1692.38 270.493 1692.94 267.956L1699.06 264.23Z" fill="#458CA5" stroke="#458CA5"/>
<path d="M1788.41 309.291C1786.52 308.939 1785.35 307.296 1785.64 305.635L1785.66 305.506C1786.04 303.79 1787.88 302.62 1789.82 302.986L1789.82 302.986C1791.76 303.348 1792.94 305.065 1792.57 306.768C1792.19 308.488 1790.35 309.654 1788.41 309.291Z" fill="#458CA5" stroke="#458CA5"/>
<path d="M1444.09 318.014L1444.06 318.142C1443.69 319.845 1444.87 321.562 1446.81 321.924L1446.81 321.924C1448.75 322.29 1450.59 321.12 1450.96 319.405L1444.09 318.014ZM1444.09 318.014C1444.53 316.37 1446.32 315.268 1448.22 315.622L1444.09 318.014ZM1448.22 315.622C1450.15 315.984 1451.34 317.701 1450.96 319.404L1448.22 315.622Z" fill="#458CA5" stroke="#458CA5"/>
<path d="M1452.22 297.182C1454.17 297.545 1456 296.375 1456.38 294.66L1452.22 297.182ZM1452.22 297.182C1450.29 296.821 1449.1 295.104 1449.47 293.4L1452.22 297.182ZM1449.47 293.4C1449.85 291.684 1451.69 290.514 1453.63 290.877L1449.47 293.4ZM1453.63 290.877C1455.57 291.239 1456.75 292.956 1456.38 294.66L1453.63 290.877Z" fill="#458CA5" stroke="#458CA5"/>
<path d="M1581.2 292.384L1581.2 292.383C1581.45 291.255 1582.66 290.468 1583.97 290.714L1583.97 290.714C1585.27 290.956 1586.04 292.099 1585.79 293.212L1585.79 293.214C1585.55 294.342 1584.33 295.128 1583.03 294.882L1583.02 294.882C1581.73 294.641 1580.95 293.497 1581.2 292.384Z" fill="#458CA5" stroke="#458CA5"/>
<path d="M1663.38 268.273L1663.38 268.272C1663.63 267.144 1664.84 266.357 1666.15 266.603L1666.15 266.604C1667.45 266.845 1668.22 267.988 1667.97 269.102L1667.97 269.103C1667.73 270.231 1666.51 271.018 1665.2 270.772L1665.2 270.771C1663.91 270.53 1663.13 269.387 1663.38 268.273ZM1662.89 268.166C1663.2 266.742 1664.7 265.822 1666.24 266.112L1662.89 268.166Z" fill="#458CA5" stroke="#458CA5"/>
<path d="M1614.82 226.286L1614.82 226.285C1615.07 225.157 1616.29 224.37 1617.59 224.616L1617.59 224.616C1618.89 224.858 1619.66 226.001 1619.42 227.114L1619.42 227.115C1619.17 228.243 1617.95 229.03 1616.65 228.784L1616.65 228.784C1615.35 228.542 1614.58 227.399 1614.82 226.286Z" fill="#458CA5" stroke="#458CA5"/>
<path d="M1710.22 136.707L1710.22 136.706C1710.47 135.578 1711.68 134.791 1712.99 135.037L1712.99 135.037C1714.29 135.279 1715.06 136.422 1714.81 137.535L1714.81 137.536C1714.57 138.664 1713.35 139.451 1712.05 139.205L1712.04 139.205C1710.75 138.963 1709.97 137.82 1710.22 136.707ZM1709.73 136.599C1710.04 135.176 1711.54 134.256 1713.08 134.546L1709.73 136.599Z" fill="#458CA5" stroke="#458CA5"/>
<path d="M1454.07 233.704L1454.07 233.703C1454.31 232.575 1455.53 231.788 1456.84 232.034L1456.84 232.034C1458.14 232.276 1458.91 233.419 1458.66 234.532L1458.66 234.533C1458.42 235.661 1457.2 236.448 1455.89 236.202L1455.89 236.202C1454.6 235.96 1453.82 234.817 1454.07 233.704Z" fill="#458CA5" stroke="#458CA5"/>
<path d="M1754.72 186.223L1754.72 186.223C1752.84 185.868 1751.05 186.956 1750.6 188.584L1750.56 188.746C1750.19 190.449 1751.38 192.166 1753.31 192.528C1755.25 192.891 1757.09 191.721 1757.47 190.006L1754.72 186.223ZM1754.72 186.223C1756.65 186.585 1757.84 188.302 1757.47 190.006L1754.72 186.223Z" fill="#458CA5" stroke="#458CA5"/>
<path d="M1899.68 290.727L1899.68 290.726C1899.92 289.598 1901.14 288.811 1902.45 289.057L1902.45 289.057C1903.75 289.299 1904.52 290.442 1904.27 291.555L1904.27 291.556C1904.03 292.684 1902.81 293.471 1901.5 293.225L1901.5 293.225C1900.21 292.983 1899.43 291.84 1899.68 290.727Z" fill="#458CA5" stroke="#458CA5"/>
<path d="M1910.62 270.338C1908.73 269.985 1907.56 268.343 1907.84 266.681L1907.87 266.552C1908.25 264.836 1910.09 263.667 1912.03 264.033L1912.03 264.033C1913.96 264.394 1915.15 266.111 1914.77 267.814L1914.77 267.815C1914.4 269.531 1912.56 270.701 1910.62 270.338Z" fill="#458CA5" stroke="#458CA5"/>
<path d="M1857.46 128.606L1857.45 128.606C1855.53 128.243 1853.71 129.387 1853.31 131.074V131.076L1853.3 131.128C1852.93 132.832 1854.11 134.549 1856.05 134.911C1857.99 135.274 1859.83 134.104 1860.2 132.389L1857.46 128.606ZM1857.46 128.606C1859.39 128.968 1860.58 130.685 1860.2 132.388L1857.46 128.606Z" fill="#458CA5" stroke="#458CA5"/>
<path d="M1900.83 194.753C1900.55 196.41 1901.73 198.043 1903.61 198.395C1905.55 198.758 1907.39 197.588 1907.77 195.873L1907.77 195.872C1908.14 194.169 1906.95 192.452 1905.02 192.09L1900.83 194.753ZM1900.83 194.753L1900.86 194.613C1901.24 192.897 1903.08 191.727 1905.02 192.09L1900.83 194.753Z" fill="#458CA5" stroke="#458CA5"/>
<path d="M1802.15 84.9481L1802.15 84.9469C1802.4 83.819 1803.61 83.0321 1804.92 83.2782L1804.92 83.2784C1806.22 83.52 1806.99 84.6631 1806.75 85.7764L1806.75 85.7776C1806.5 86.9055 1805.28 87.6924 1803.98 87.4464L1803.98 87.4462C1802.68 87.2045 1801.91 86.0614 1802.15 84.9481Z" fill="#458CA5" stroke="#458CA5"/>
<path d="M1630.92 187.658L1630.92 187.658C1631.41 185.407 1633.82 183.896 1636.33 184.366L1636.33 184.366C1638.85 184.834 1640.4 187.074 1639.92 189.308L1639.92 189.309C1639.42 191.56 1637.02 193.071 1634.5 192.601L1634.5 192.601C1631.99 192.133 1630.43 189.893 1630.92 187.658Z" fill="#458CA5" stroke="#458CA5"/>
<path opacity="0.2" d="M814.766 354.166L763.041 296.947L726.571 437.412L814.766 354.166Z" fill="#458CA5" stroke="#458CA5"/>
<path opacity="0.2" d="M984.899 341.785L821.426 286.723L921.65 426.685L984.899 341.785Z" fill="#458CA5" stroke="#458CA5"/>
<path opacity="0.1" d="M893.751 216.529L921.795 424.926L955.793 292.646L893.751 216.529Z" fill="#458CA5" stroke="#458CA5"/>
<path opacity="0.2" d="M1180.78 273.818L1072.01 266.813L1173.9 344.351L1180.78 273.818Z" fill="#458CA5" stroke="#458CA5"/>
<path opacity="0.1" d="M1181.09 272.837L1227.49 210.895L1072.84 265.866L1181.09 272.837Z" fill="#458CA5" stroke="#458CA5"/>
<path opacity="0.1" d="M1331.03 267.722L1229.85 210.986L1296.46 382.708L1331.03 267.722Z" fill="#458CA5" stroke="#458CA5"/>
<path opacity="0.2" d="M1331.28 267.863L1232.95 212.725L1384.86 343.966L1331.28 267.863Z" fill="#458CA5" stroke="#458CA5"/>
<path opacity="0.2" d="M1538.67 472.678L1450.86 268.004L1457.67 433.68L1538.67 472.678Z" fill="#458CA5" stroke="#458CA5"/>
<path d="M651.613 488.18L616.681 427.513L725.651 438.968L815.44 354.54L763.148 296.99L820.352 286.289L815.44 354.54L985.885 341.802L921.641 427.533L820.352 286.289L731.035 356.381L648.613 318.417L616.681 427.513" stroke="#458CA5" stroke-width="2" stroke-miterlimit="10"/>
<path d="M820.351 286.288L893.275 216.016L957.057 293.063L820.351 286.288Z" stroke="#458CA5" stroke-width="2" stroke-miterlimit="10"/>
<path d="M763.148 296.99L731.035 356.381L616.681 427.513L725.651 438.968L648.613 318.417L815.44 354.54L957.057 293.063L1059.99 318.294L1181.32 273.353L1228.79 209.885L1331.62 267.482L1174.31 345.292L1059.99 318.294L985.885 341.801L957.057 293.063L1070.39 266.208L893.275 216.016L921.641 427.533" stroke="#458CA5" stroke-width="2" stroke-miterlimit="10"/>
<path d="M1070.39 266.208L1181.32 273.353L1387.61 347.002L1174.31 345.292L1228.79 209.885L1070.39 266.208Z" stroke="#458CA5" stroke-width="2" stroke-miterlimit="10"/>
<path d="M1181.32 273.353L1331.62 267.482L1387.61 347.002L1450.25 265.312L1638.13 396.884L1539.85 473.674L1457.18 434.001L1387.61 347.002L1296.52 384.245L1174.31 345.292L1070.39 266.208L985.885 341.801L820.352 286.288L921.641 427.533L731.035 356.381L651.613 488.18L565.12 464.006L616.681 427.513" stroke="#458CA5" stroke-width="2" stroke-miterlimit="10"/>
<path d="M1539.85 473.674L1450.25 265.312L1457.18 434.001L1638.13 396.884L1296.52 384.245L1070.39 266.208L725.651 438.968L515.655 315.574L648.613 318.417" stroke="#458CA5" stroke-width="2" stroke-miterlimit="10"/>
<path d="M1638.13 396.884L1331.62 267.482" stroke="#458CA5" stroke-width="2" stroke-miterlimit="10"/>
<path d="M533.581 364.496L754.259 509.787L883.734 392.28L647.095 256.507L1012.36 369.846L1055.59 220.131L819.613 258.714L1183.05 369.183L1373.12 215.233L1100.27 227.345L1271.91 445.416L1281.18 163.471L1419.96 346.796L999.325 271.809L747.429 390.633L533.581 364.496Z" stroke="#458CA5" stroke-width="2.5" stroke-miterlimit="10"/>
<path d="M754.258 509.787L747.428 390.633L883.733 392.28L819.612 258.713L999.324 271.809L533.58 364.495" stroke="#458CA5" stroke-width="2.5" stroke-miterlimit="10"/>
<path d="M1419.96 346.796L1502.28 371.117L1629.19 311.886L1632.71 372.14L1468.52 304.809L1419.96 346.796ZM1419.96 346.796L1271.91 445.416L1373.12 215.233L1281.18 163.471L1183.05 369.183L1100.27 227.345L1055.59 220.131L999.324 271.809L883.733 392.28L819.612 258.714L747.428 390.633L1012.36 369.846L1100.27 227.345L1468.52 304.809" stroke="#458CA5" stroke-width="2.5" stroke-miterlimit="10"/>
<path d="M647.095 256.507L747.429 390.633" stroke="#458CA5" stroke-width="2.5" stroke-miterlimit="10"/>
<path d="M1468.52 304.808L1373.12 215.233L1632.71 372.14L1502.28 371.117L1468.52 304.808Z" stroke="#458CA5" stroke-width="2.5" stroke-miterlimit="10"/>
<path d="M1075.57 265.732L1075.54 265.552C1074.98 263.003 1072.26 261.296 1069.42 261.826C1066.58 262.357 1064.81 264.885 1065.37 267.422C1065.93 269.971 1068.64 271.677 1071.49 271.144C1074.25 270.626 1076.01 268.207 1075.57 265.732Z" fill="#458CA5" stroke="#458CA5"/>
<path d="M823.838 285.81L823.805 285.658C823.429 283.943 821.591 282.773 819.646 283.136L823.838 285.81ZM823.838 285.81C824.108 287.461 822.935 289.087 821.06 289.437L821.059 289.437C819.115 289.803 817.277 288.634 816.902 286.918L816.902 286.917C816.527 285.214 817.713 283.497 819.646 283.136L823.838 285.81Z" fill="#458CA5" stroke="#458CA5"/>
<path d="M653.212 317.521L653.223 317.573C653.776 320.111 652.008 322.638 649.174 323.17C646.327 323.7 643.613 321.993 643.054 319.444C642.501 316.906 644.269 314.379 647.104 313.848L653.212 317.521ZM653.212 317.521V317.519M653.212 317.521V317.519M653.212 317.519C652.628 314.999 649.931 313.318 647.104 313.848L653.212 317.519Z" fill="#458CA5" stroke="#458CA5"/>
<path d="M516.363 318.726C518.243 318.374 519.417 316.741 519.138 315.085L519.107 314.944C518.732 313.228 516.894 312.058 514.95 312.424L514.949 312.424C513.016 312.786 511.829 314.503 512.205 316.206L512.205 316.207C512.58 317.922 514.418 319.092 516.362 318.726L516.363 318.726Z" fill="#458CA5" stroke="#458CA5"/>
<path d="M1470.81 304.396L1470.81 304.395C1470.57 303.267 1469.35 302.48 1468.04 302.726L1468.04 302.726C1466.74 302.968 1465.97 304.111 1466.22 305.224L1466.22 305.225C1466.46 306.353 1467.68 307.14 1468.99 306.894L1468.99 306.894C1470.29 306.652 1471.06 305.509 1470.81 304.396Z" fill="#458CA5" stroke="#458CA5"/>
<path d="M1375.41 214.817L1375.41 214.816C1375.17 213.688 1373.95 212.901 1372.65 213.147L1372.64 213.147C1371.35 213.389 1370.57 214.532 1370.82 215.645L1370.82 215.646C1371.07 216.774 1372.28 217.561 1373.59 217.315L1373.59 217.315C1374.89 217.073 1375.66 215.93 1375.41 214.817ZM1375.9 214.709C1375.59 213.286 1374.09 212.365 1372.55 212.655L1375.9 214.709Z" fill="#458CA5" stroke="#458CA5"/>
<path d="M1631.57 311.814L1631.57 311.813C1631.32 310.685 1630.1 309.898 1628.8 310.144L1628.8 310.144C1627.5 310.386 1626.73 311.529 1626.97 312.642L1626.97 312.643C1627.22 313.771 1628.43 314.558 1629.74 314.312L1629.74 314.312C1631.04 314.07 1631.81 312.927 1631.57 311.814Z" fill="#458CA5" stroke="#458CA5"/>
<path d="M1330.92 264.333L1330.92 264.332C1332.8 263.978 1334.58 265.065 1335.03 266.693L1335.07 266.856C1335.44 268.559 1334.26 270.276 1332.33 270.637C1330.38 271.001 1328.54 269.83 1328.17 268.115L1330.92 264.333ZM1330.92 264.333C1328.98 264.694 1327.79 266.411 1328.17 268.115L1330.92 264.333Z" fill="#458CA5" stroke="#458CA5"/>
<path d="M1228.18 206.716L1228.18 206.716C1230.1 206.353 1231.93 207.497 1232.33 209.184V209.185L1232.34 209.238C1232.71 210.942 1231.52 212.659 1229.59 213.021C1227.64 213.384 1225.81 212.214 1225.43 210.498L1228.18 206.716ZM1228.18 206.716C1226.25 207.077 1225.06 208.795 1225.43 210.498L1228.18 206.716Z" fill="#458CA5" stroke="#458CA5"/>
<path d="M1184.8 272.863C1185.08 274.52 1183.91 276.153 1182.03 276.505C1180.08 276.868 1178.25 275.698 1177.87 273.982L1177.87 273.982C1177.49 272.279 1178.68 270.562 1180.61 270.2L1184.8 272.863ZM1184.8 272.863L1184.77 272.723C1184.4 271.007 1182.56 269.837 1180.61 270.2L1184.8 272.863Z" fill="#458CA5" stroke="#458CA5"/>
<path d="M893.984 219.169C895.864 218.817 897.038 217.184 896.759 215.528L896.728 215.386C896.353 213.671 894.515 212.501 892.571 212.867L892.57 212.867C890.637 213.229 889.451 214.946 889.826 216.649L889.826 216.65C890.201 218.365 892.039 219.535 893.983 219.169L893.984 219.169Z" fill="#458CA5" stroke="#458CA5"/>
<path d="M959.963 292.69L959.93 292.54C959.554 290.824 957.716 289.654 955.771 290.017L959.963 292.69ZM959.963 292.69C960.233 294.342 959.06 295.968 957.185 296.319L957.184 296.319C955.24 296.685 953.402 295.515 953.027 293.799L953.027 293.799C952.652 292.096 953.838 290.379 955.771 290.017L959.963 292.69Z" fill="#458CA5" stroke="#458CA5"/>
<path d="M765.328 296.598L765.328 296.596C765.082 295.468 763.865 294.682 762.559 294.928L762.558 294.928C761.26 295.169 760.488 296.313 760.733 297.426L760.733 297.427C760.979 298.555 762.196 299.342 763.502 299.096L763.503 299.096C764.801 298.854 765.573 297.711 765.328 296.598Z" fill="#458CA5" stroke="#458CA5"/>
<path d="M649.39 256.094L649.39 256.093C649.144 254.965 647.928 254.178 646.621 254.424L646.62 254.424C645.322 254.666 644.55 255.809 644.796 256.922L644.796 256.924C645.042 258.052 646.258 258.838 647.565 258.592L647.566 258.592C648.864 258.35 649.636 257.207 649.39 256.094Z" fill="#458CA5" stroke="#458CA5"/>
<path d="M821.908 258.301L821.908 258.3C821.662 257.172 820.445 256.385 819.139 256.631L819.138 256.631C817.84 256.873 817.068 258.016 817.313 259.129L817.313 259.131C817.559 260.259 818.776 261.045 820.082 260.799L820.083 260.799C821.381 260.558 822.153 259.414 821.908 258.301Z" fill="#458CA5" stroke="#458CA5"/>
<path d="M1001.62 271.397L1001.62 271.396C1001.38 270.268 1000.16 269.481 998.855 269.727L998.854 269.727C997.556 269.969 996.784 271.112 997.029 272.225L997.029 272.226C997.275 273.354 998.492 274.141 999.798 273.895L999.799 273.895C1001.1 273.653 1001.87 272.51 1001.62 271.397Z" fill="#458CA5" stroke="#458CA5"/>
<path d="M1056.92 220.268L1056.92 220.267C1056.68 219.139 1055.46 218.352 1054.15 218.598L1054.15 218.598C1052.86 218.84 1052.08 219.983 1052.33 221.096L1052.33 221.097C1052.57 222.225 1053.79 223.012 1055.1 222.766L1055.1 222.766C1056.4 222.524 1057.17 221.381 1056.92 220.268Z" fill="#458CA5" stroke="#458CA5"/>
<path d="M1102.57 226.929L1102.57 226.928C1102.33 225.8 1101.11 225.013 1099.8 225.259L1099.8 225.259C1098.5 225.501 1097.73 226.644 1097.98 227.757L1097.98 227.759C1098.22 228.886 1099.44 229.673 1100.75 229.427L1100.75 229.427C1102.04 229.185 1102.82 228.042 1102.57 226.929Z" fill="#458CA5" stroke="#458CA5"/>
<path d="M1283.48 163.058L1283.48 163.057C1283.24 161.929 1282.02 161.142 1280.71 161.388L1280.71 161.388C1279.42 161.63 1278.64 162.773 1278.89 163.886L1278.89 163.887C1279.13 165.015 1280.35 165.802 1281.66 165.556L1281.66 165.556C1282.96 165.314 1283.73 164.171 1283.48 163.058Z" fill="#458CA5" stroke="#458CA5"/>
<path d="M1454.71 265.768L1454.71 265.768C1454.22 263.517 1451.82 262.005 1449.3 262.476L1449.3 262.476C1446.79 262.944 1445.23 265.184 1445.72 267.418L1445.72 267.418C1446.21 269.67 1448.61 271.181 1451.13 270.711L1451.13 270.711C1453.65 270.243 1455.2 268.003 1454.71 265.768Z" fill="#458CA5" stroke="#458CA5"/>
</g>
</g>
</svg>
