<?xml version="1.0" encoding="UTF-8"?>
<svg width="64" height="64" version="1.1" viewBox="0 0 64 64" xmlns="http://www.w3.org/2000/svg">
  <defs>
    <style>.cls-1{fill:#c4d733;}.cls-1,.cls-2,.cls-3,.cls-4,.cls-5{stroke-width:0px;}.cls-6{clip-path:url(#clippath);}.cls-2,.cls-7{fill:none;}.cls-8{letter-spacing:0em;}.cls-3{fill:#a3b037;}.cls-9{clip-path:url(#clippath-1);}.cls-10{letter-spacing:0em;}.cls-11{letter-spacing:0em;}.cls-12{font-family:Montserrat-Bold, Montserrat;font-size:12.47px;font-weight:700;}.cls-12,.cls-5{fill:#fff;}.cls-4{fill:#8f8f8f;}.cls-13{letter-spacing:-.02em;}.cls-7{stroke:#8f8f8f;stroke-miterlimit:10;}</style>
    <clipPath id="clippath">
      <rect class="cls-2" y="37.28" width="62" height="62"/>
    </clipPath>
    <clipPath id="clippath-1">
      <rect class="cls-2" y="37.28" width="62" height="62"/>
    </clipPath>
  </defs>
  <g transform="matrix(.40001 0 0 .41386 -3.0641 -10.109)">
    <polygon class="cls-4" points="116.94 25.87 116.94 26.83 46.14 26.83 46.14 44.59 44.22 44.59 44.22 24.91 118.28 24.91 119.06 25.65 118.86 25.87"/>
    <path class="cls-5" d="m121.45 105.6c3.75-1.49 7.72-2.25 11.8-2.25 5.68 0 11.27 1.52 16.15 4.38 9.76 5.72 15.82 16.29 15.82 27.59 0 17.63-14.34 31.97-31.97 31.97-10.76 0-20.3-5.34-26.09-13.51-3.7-5.22-5.88-11.59-5.88-18.46 0-3.09 0.44-6.14 1.31-9.08 2.76-9.32 9.81-17.04 18.86-20.64z"/>
    <path class="cls-4" d="m132.67 168.95h-1.92v0.17c-9.92-0.73-18.66-5.74-24.38-13.19h0.45v-1.91l0.34-0.24c5.79 8.17 15.33 13.51 26.09 13.51 17.63 0 31.97-14.34 31.97-31.97 0-11.3-6.06-21.87-15.82-27.59l0.97-1.66c5.01 2.94 9.21 7.14 12.14 12.16 3.03 5.16 4.63 11.07 4.63 17.09 0 18.69-15.21 33.89-33.89 33.89-0.19 0-0.39 0-0.58-0.01z"/>
    <polygon class="cls-4" points="143.04 51.03 118.86 28.11 118.86 25.87 119.06 25.65 145.29 50.51 144.79 51.03"/>
    <path class="cls-5" d="m120.74 103.82c-4.72 1.88-9.04 4.86-12.49 8.62-1.84 2.01-3.44 4.25-4.75 6.65v-0.13h-54.84v1.92h53.93c-0.74 1.56-1.35 3.17-1.84 4.82-0.92 3.11-1.39 6.35-1.39 9.62 0 0.39 0.01 0.78 0.02 1.17h-50.72v1.92h50.85c0.51 5.73 2.46 11.05 5.49 15.61h-56.34v1.91h57.71c5.72 7.45 14.46 12.46 24.38 13.19l-0.04 7.54h-97.69v-129.59h70.8v26.13h27.38l-0.15 28.32c-3.55 0.22-7.01 0.99-10.31 2.3zm-3.17-0.47v-1.91h-68.91v1.91zm0-17.52v-1.92h-68.91v1.92z"/>
    <path class="cls-4" d="m101.28 135.32c0 6.87 2.18 13.24 5.88 18.46l-0.34 0.24h-1.82c-3.03-4.56-4.98-9.88-5.49-15.61h0.88v-1.92h-1.01c-0.01-0.39-0.02-0.78-0.02-1.17 0-3.27 0.47-6.51 1.39-9.62l1.84 0.54c-0.87 2.94-1.31 5.99-1.31 9.08z"/>
    <path class="cls-4" d="m150.37 106.07-0.97 1.66c-4.88-2.86-10.47-4.38-16.15-4.38-4.08 0-8.05 0.76-11.8 2.25l-0.71-1.78c3.3-1.31 6.76-2.08 10.31-2.3v0.47h1.92v-0.54c0.09-0.01 0.19-0.01 0.28-0.01 3.73 0 7.41 0.61 10.9 1.79v1.37h1.92v-0.65c1.48 0.6 2.91 1.31 4.3 2.12z"/>
    <path class="cls-4" d="m146.07 103.95v0.65h-1.92v-1.37c0.65 0.22 1.29 0.46 1.92 0.72z"/>
    <path class="cls-4" d="m146.07 51.25v52.7c-0.63-0.26-1.27-0.5-1.92-0.72v-50.28h0.64v-1.92l0.5-0.52z"/>
    <polygon class="cls-4" points="144.15 52.95 144.15 52.08 143.04 51.03 144.79 51.03 144.79 52.95"/>
    <path class="cls-5" d="m144.15 52.95v50.28c-3.49-1.18-7.17-1.79-10.9-1.79-0.09 0-0.19 0-0.28 0.01l0.15-29.62-1.03-0.99-16.87-16.09 1.72-1.8z"/>
    <polygon class="cls-4" points="144.15 52.08 144.15 52.95 116.94 52.95 116.94 26.83 117.51 26.83 118.86 28.11 118.86 51.03 143.04 51.03"/>
    <polygon class="cls-5" points="118.86 51.03 118.86 28.11 143.04 51.03"/>
    <path class="cls-4" d="m133.12 71.83-0.15 29.62c-0.64 0-1.29 0.02-1.92 0.07l0.15-28.32h0.47v-1.92l0.42-0.44z"/>
    <path class="cls-4" d="m132.97 101.45v0.55h-1.92v-0.48c0.63-0.05 1.28-0.07 1.92-0.07z"/>
    <path class="cls-4" d="m132.67 168.95v0.25c-0.65-0.01-1.29-0.03-1.92-0.08v-0.18h1.92z"/>
    <path class="cls-4" d="m132.67 169.2-0.05 9.38h-101.52v-133.43h13.12v1.92h-11.2v129.59h97.69l0.04-7.54c0.63 0.05 1.27 0.07 1.92 0.08z"/>
    <polygon class="cls-4" points="105.74 46.11 105.94 45.9 115.22 54.75 132.09 70.84 131.67 71.28 129.76 71.28 105.74 48.35"/>
    <polygon class="cls-4" points="131.2 73.2 131.2 72.65 129.76 71.28 131.67 71.28 131.67 73.2"/>
    <polygon class="cls-4" points="131.2 72.65 131.2 73.2 103.82 73.2 103.82 47.07 104.4 47.07 105.74 48.35 105.74 71.28 129.76 71.28"/>
    <polygon class="cls-5" points="105.74 71.28 105.74 48.35 129.76 71.28"/>
    <path class="cls-4" d="m120.74 103.82 0.71 1.78c-9.05 3.6-16.1 11.32-18.86 20.64l-1.84-0.54c0.49-1.65 1.1-3.26 1.84-4.82h0.91v-1.79c1.31-2.4 2.91-4.64 4.75-6.65 3.45-3.76 7.77-6.74 12.49-8.62z"/>
    <polygon class="cls-4" points="117.51 26.83 116.94 26.83 116.94 25.87 118.86 25.87 118.86 28.11"/>
    <rect class="cls-4" x="48.66" y="101.44" width="68.91" height="1.91"/>
    <rect class="cls-4" x="48.66" y="83.91" width="68.91" height="1.92"/>
    <polygon class="cls-5" points="116.94 26.83 116.94 52.95 115.22 54.75 105.94 45.9 105.16 45.15 46.14 45.15 46.14 44.59 46.14 26.83"/>
    <path class="cls-4" d="m106.82 154.02v1.91h-0.45c-0.48-0.62-0.94-1.26-1.37-1.91z"/>
    <path class="cls-4" d="m106.37 155.93h-57.71v-1.91h56.34c0.43 0.65 0.89 1.29 1.37 1.91z"/>
    <polygon class="cls-4" points="44.22 47.07 44.22 46.11 46.14 46.11 46.14 45.15 105.16 45.15 105.94 45.9 105.74 46.11 103.82 46.11 103.82 47.07"/>
    <polygon class="cls-4" points="104.4 47.07 103.82 47.07 103.82 46.11 105.74 46.11 105.74 48.35"/>
    <path class="cls-4" d="m103.5 119.09v1.79h-0.91c0.28-0.61 0.59-1.2 0.91-1.79z"/>
    <path class="cls-4" d="m103.5 118.96v0.13c-0.32 0.59-0.63 1.18-0.91 1.79h-53.93v-1.92z"/>
    <path class="cls-4" d="m100.39 136.49v1.92h-0.88c-0.07-0.63-0.11-1.27-0.13-1.92z"/>
    <path class="cls-4" d="m99.51 138.41h-50.85v-1.92h50.72c0.02 0.65 0.06 1.29 0.13 1.92z"/>
    <rect class="cls-4" x="44.22" y="45.15" width="1.92" height=".96"/>
    <rect class="cls-4" x="44.22" y="44.59" width="1.92" height=".56"/>
    <polyline class="cls-7" points="103.82 47.07 44.22 47.07 33.02 47.07 33.02 176.66 130.71 176.66 130.75 169.12"/>
    <line class="cls-7" x1="129.76" x2="105.74" y1="71.28" y2="48.35"/>
    <line class="cls-7" x1="131.05" x2="131.2" y1="101.52" y2="73.2"/>
    <polyline class="cls-7" points="46.14 45.15 105.16 45.15 105.94 45.9 115.22 54.75 132.09 70.84 133.12 71.83 132.97 101.45"/>
    <polyline class="cls-7" points="132.67 169.2 132.62 178.58 31.1 178.58 31.1 45.15 44.22 45.15"/>
    <polygon class="cls-7" points="131.2 73.2 103.82 73.2 103.82 47.07 103.82 46.11 105.74 46.11 105.74 48.35 105.74 71.28 129.76 71.28 131.67 71.28 131.67 73.2"/>
    <polyline class="cls-7" points="44.22 44.59 44.22 24.91 118.28 24.91 119.06 25.65 145.29 50.51 146.07 51.25 146.07 103.95"/>
    <polyline class="cls-7" points="116.94 26.83 46.14 26.83 46.14 44.59"/>
    <line class="cls-7" x1="143.04" x2="118.86" y1="51.03" y2="28.11"/>
    <line class="cls-7" x1="144.15" x2="144.15" y1="103.23" y2="52.95"/>
    <polygon class="cls-7" points="44.22 46.11 44.22 45.15 44.22 44.59 46.14 44.59 46.14 45.15 46.14 46.11"/>
    <polygon class="cls-7" points="144.15 52.95 116.94 52.95 116.94 26.83 116.94 25.87 118.86 25.87 118.86 28.11 118.86 51.03 143.04 51.03 144.79 51.03 144.79 52.95"/>
    <rect class="cls-7" x="48.66" y="83.91" width="68.91" height="1.92"/>
    <rect class="cls-7" x="48.66" y="101.44" width="68.91" height="1.91"/>
    <polyline class="cls-7" points="102.59 120.88 48.66 120.88 48.66 118.96 103.5 118.96 103.5 119.09"/>
    <polyline class="cls-7" points="99.51 138.41 48.66 138.41 48.66 136.49 99.38 136.49"/>
    <polyline class="cls-7" points="106.37 155.93 48.66 155.93 48.66 154.02 105 154.02"/>
    <path class="cls-7" d="m120.74 103.82c3.3-1.31 6.76-2.08 10.31-2.3 0.63-0.05 1.28-0.07 1.92-0.07 0.09-0.01 0.19-0.01 0.28-0.01 3.73 0 7.41 0.61 10.9 1.79 0.65 0.22 1.29 0.46 1.92 0.72 1.48 0.6 2.91 1.31 4.3 2.12"/>
    <path class="cls-7" d="m149.4 107.73c-4.88-2.86-10.47-4.38-16.15-4.38-4.08 0-8.05 0.76-11.8 2.25"/>
    <path class="cls-7" d="m100.75 125.7c0.49-1.65 1.1-3.26 1.84-4.82 0.28-0.61 0.59-1.2 0.91-1.79 1.31-2.4 2.91-4.64 4.75-6.65 3.45-3.76 7.77-6.74 12.49-8.62l0.71 1.78c-9.05 3.6-16.1 11.32-18.86 20.64"/>
    <path class="cls-7" d="m150.37 106.07c5.01 2.94 9.21 7.14 12.14 12.16 3.03 5.16 4.63 11.07 4.63 17.09 0 18.69-15.21 33.89-33.89 33.89-0.19 0-0.39 0-0.58-0.01-0.65-0.01-1.29-0.03-1.92-0.08-9.92-0.73-18.66-5.74-24.38-13.19-0.48-0.62-0.94-1.26-1.37-1.91-3.03-4.56-4.98-9.88-5.49-15.61-0.07-0.63-0.11-1.27-0.13-1.92-0.01-0.39-0.02-0.78-0.02-1.17 0-3.27 0.47-6.51 1.39-9.62l1.84 0.54c-0.87 2.94-1.31 5.99-1.31 9.08 0 6.87 2.18 13.24 5.88 18.46 5.79 8.17 15.33 13.51 26.09 13.51 17.63 0 31.97-14.34 31.97-31.97 0-11.3-6.06-21.87-15.82-27.59z"/>
    <rect class="cls-1" x="7.66" y="52.95" width="92.61" height="21.12"/>
    <rect class="cls-1" x="130.84" y="104.92" width="3.62" height="2.04"/>
    <rect class="cls-1" x="134.47" y="106.96" width="3.62" height="2.04"/>
    <rect class="cls-1" x="130.84" y="109" width="3.62" height="2.04"/>
    <rect class="cls-1" x="134.47" y="111.04" width="3.62" height="2.04"/>
    <rect class="cls-1" x="130.84" y="113.07" width="3.62" height="2.04"/>
    <rect class="cls-1" x="134.47" y="115.11" width="3.62" height="2.04"/>
    <rect class="cls-1" x="130.84" y="117.15" width="3.62" height="2.04"/>
    <rect class="cls-1" x="134.47" y="119.19" width="3.62" height="2.04"/>
    <rect class="cls-1" x="130.84" y="121.22" width="3.62" height="2.04"/>
    <rect class="cls-1" x="134.47" y="123.26" width="3.62" height="2.04"/>
    <rect class="cls-1" x="130.84" y="125.3" width="3.62" height="2.04"/>
    <rect class="cls-1" x="134.47" y="127.33" width="3.62" height="2.04"/>
    <path class="cls-1" d="m133.11 127.34h2.82v7.73c0 0.34-0.27 0.61-0.61 0.61h-1.6c-0.34 0-0.61-0.27-0.61-0.61z"/>
    <path class="cls-1" d="m134.52 150.15h-0.06-0.06 0.11z"/>
    <path class="cls-1" d="m139.53 146.37s-1.02-12.46-1.14-14.02-1.11-1.53-1.11-1.53h-5.62s-0.99-0.03-1.11 1.53-1.14 14.02-1.14 14.02-0.29 3.75 5.07 3.78c5.35-0.03 5.07-3.78 5.07-3.78zm-7.68-12.87c0-0.79 0.65-1.44 1.44-1.44h2.44c0.79 0 1.44 0.65 1.44 1.44l0.25 3.22c0 0.79-0.89 1.46-1.68 1.46h-2.44c-0.79 0-1.71-0.56-1.71-1.35l0.27-3.33zm3.83 15.45h-2.35c-0.94 0-2.58-1.14-2.58-2.08s0.77-1.71 1.71-1.71h4.01c0.94 0 1.71 0.77 1.71 1.71s-1.55 2.08-2.49 2.08z"/>
    <path class="cls-1" d="m131.64 160.89v1.74h-8.09v-1.39l5.07-6.12h-4.97v-1.74h7.78v1.39l-5.06 6.12h5.26z"/>
    <path class="cls-1" d="m133.02 153.39h2.14v9.25h-2.14z"/>
    <path class="cls-1" d="m145.38 156.74c0 2.06-1.55 3.34-4.02 3.34h-1.86v2.55h-2.14v-9.25h4c2.47 0 4.02 1.28 4.02 3.36zm-2.17 0c0-1.02-0.66-1.61-1.97-1.61h-1.74v3.21h1.74c1.31 0 1.97-0.59 1.97-1.6z"/>
  </g>
  <g transform="matrix(.40001 0 0 .41386 -3.0641 -10.109)">
    <g class="cls-6" clip-path="url(#clippath)">
      <g class="cls-9" clip-path="url(#clippath-1)">
        <path class="cls-5" d="m11.49 58.95c0.31 0 0.63-0.03 0.94 0.03v9.84h-2.4v-9.88c0.49-0.01 0.98 0 1.47 0m20.62-0.01c0 0.6 0.01 1.19 0 1.78h-2.75v8.1h-2.37v-8.09c-0.92-0.02-1.84 0-2.77 0v-1.78h7.9m-11.42 0.09c0.32 0.08 0.63 0.2 0.95 0.33v2.14h-0.05-0.03c-0.06 0-0.13 0-0.18-0.04-0.87-0.64-1.95-1.03-3.04-0.93-0.41 0.04-0.84 0.19-1.09 0.53-0.26 0.34-0.15 0.89 0.22 1.09 0.32 0.19 0.7 0.26 1.05 0.35 0.71 0.17 1.43 0.34 2.09 0.67 0.55 0.28 1.05 0.73 1.26 1.34 0.21 0.62 0.21 1.31 0.05 1.93-0.25 0.93-1.02 1.64-1.89 1.98-0.45 0.17-0.93 0.29-1.42 0.33-0.36 0.04-0.73-0.03-1.09 0.02-1.02-0.02-2.02-0.3-2.96-0.7 0-0.02-0.02-0.05-0.03-0.07v-2.19h0.04 0.03c0.08 0 0.17 0 0.23 0.06 0.73 0.59 1.62 0.98 2.55 1.09 0.43 0.06 0.86 0.03 1.27-0.07 0.31-0.09 0.62-0.28 0.75-0.6 0.1-0.28 0.06-0.62-0.15-0.83-0.33-0.35-0.82-0.42-1.26-0.54-0.06-0.01-0.12-0.03-0.18-0.04l-0.09-0.02c-0.81-0.19-1.65-0.41-2.3-0.94-0.54-0.44-0.83-1.13-0.87-1.82-0.07-0.69 0.09-1.42 0.53-1.97 0.57-0.72 1.44-1.14 2.33-1.32 1.09-0.2 2.22-0.07 3.29 0.21"/>
        <path class="cls-5" d="m34.06 59.21c-0.02-0.15 0.12-0.29 0.27-0.27h6.34c0.16-0.03 0.3 0.12 0.28 0.28v1.66c0 0.15-0.15 0.24-0.28 0.23h-3.84v1.37h3.47c0.15-0.02 0.29 0.12 0.27 0.27v1.62c0.01 0.15-0.12 0.29-0.27 0.27h-3.46v1.95c1.28 0.01 2.56 0 3.85 0 0.14-0.01 0.3 0.11 0.28 0.26v1.71c0 0.08-0.05 0.13-0.1 0.18-0.18 0.04-0.37 0.01-0.55 0.02-1.66 0.02-3.31 0-4.97 0-0.36-0.02-0.73 0.02-1.09-0.01-0.15-0.03-0.19-0.2-0.18-0.33v-9.23z"/>
        <path class="cls-5" d="m43.03 59.27c-0.1-0.14 0.02-0.36 0.19-0.34h2.65c0.12 0 0.21 0.09 0.27 0.19 0.42 0.71 0.82 1.43 1.24 2.15 0.02-0.02 0.06-0.07 0.08-0.09 0.39-0.68 0.78-1.36 1.17-2.04 0.07-0.11 0.17-0.23 0.31-0.2h2.65c0.1-0.01 0.16 0.07 0.23 0.13 0.02 0.17-0.1 0.3-0.18 0.43l-2.58 4.14c-0.03 0.05-0.03 0.09 0 0.15 0.97 1.56 1.95 3.12 2.93 4.68 0.03 0.08 0.04 0.19-0.03 0.25-0.11 0.11-0.28 0.06-0.42 0.07h-1.99c-0.18 0-0.35 0.02-0.52-0.01-0.09-0.02-0.14-0.11-0.19-0.18-0.46-0.79-0.92-1.58-1.38-2.37-0.02-0.03-0.05-0.07-0.07-0.09-0.47 0.82-0.94 1.63-1.41 2.44-0.06 0.1-0.14 0.21-0.26 0.22h-2.65c-0.12 0.01-0.28-0.06-0.28-0.2-0.01-0.1 0.06-0.19 0.11-0.27 0.94-1.5 1.87-3.01 2.81-4.51 0.03-0.05 0.08-0.11 0.03-0.17-0.9-1.46-1.82-2.91-2.72-4.37"/>
        <path class="cls-5" d="m34.25 59.13c2.17-0.02 4.34 0 6.51 0v1.79h-4.13c0 0.59-0.01 1.17 0 1.76 1.25 0 2.49-0.01 3.74 0v1.77h-3.74c0 0.78-0.01 1.56 0 2.34 1.38 0.02 2.75 0 4.13 0v1.78h-6.01c-0.17 0-0.34 0.01-0.51-0.01v-9.45"/>
        <path class="cls-5" d="m43.18 59.12h2.75c0.5 0.8 0.95 1.64 1.43 2.45 0.02 0.01 0.06 0.05 0.08 0.07 0.47-0.84 0.97-1.67 1.44-2.51 0.93-0.01 1.86 0 2.79 0-0.93 1.51-1.88 3.01-2.81 4.52-0.04 0.04-0.04 0.09 0 0.13 1 1.6 2.01 3.2 3 4.81-0.85 0.02-1.7 0-2.56 0-0.08 0-0.19 0.03-0.23-0.06-0.44-0.75-0.88-1.51-1.32-2.27-0.11-0.17-0.18-0.37-0.33-0.52-0.54 0.95-1.09 1.88-1.64 2.83-0.07 0.02-0.15 0.01-0.22 0.01h-2.56c0.99-1.63 2.02-3.25 3.02-4.87-0.01-0.11-0.11-0.2-0.16-0.31-0.56-0.89-1.12-1.78-1.68-2.68-0.33-0.54-0.68-1.06-0.99-1.61"/>
      </g>
    </g>
    <text class="cls-12" transform="translate(55.05,68.77)"><tspan x="0" y="0">S</tspan><tspan class="cls-13" x="7.9499998" y="0">e</tspan><tspan x="15.63" y="0">a</tspan><tspan class="cls-8" x="23.33" y="0">r</tspan><tspan class="cls-11" x="28.59" y="0">c</tspan><tspan class="cls-10" x="35.900002" y="0">h</tspan></text>
    <polygon class="cls-3" points="30.59 74.07 7.66 74.07 30.59 81.15"/>
  </g>
</svg>
