<?xml version="1.0" encoding="UTF-8"?>
<svg xmlns="http://www.w3.org/2000/svg" width="24" height="24" viewBox="0 0 24 24" fill="none">
  <path d="M19.4807 8.01518L19.4807 19.4684C19.4807 19.8007 19.4134 20.1299 19.2825 20.437C19.1517 20.744 18.9599 21.0231 18.7182 21.2581C18.4764 21.4931 18.1894 21.6796 17.8735 21.8067C17.5576 21.9339 17.2191 21.9994 16.8772 21.9994H7.12269C6.78079 21.9994 6.44224 21.9339 6.12637 21.8067C5.81049 21.6796 5.52348 21.4931 5.28172 21.2581C5.03996 21.0231 4.84819 20.744 4.71735 20.437C4.58651 20.1299 4.51916 19.8007 4.51917 19.4684V4.53104C4.51917 4.19866 4.58651 3.86953 4.71735 3.56245C4.84819 3.25537 5.03996 2.97635 5.28172 2.74132C5.52348 2.50629 5.81049 2.31986 6.12637 2.19266C6.44224 2.06547 6.78079 2 7.12269 2L13.3241 2.00002L19.4807 8.01518Z" fill="#E1E8EB"></path>
  <path d="M11.0958 7.62697L11.2767 6.36092H12.9044V7.4461L13.447 8.35042V8.89301L13.0853 9.4356L12.9044 11.2442L12.7236 11.7868L12.181 12.1486L11.2767 11.9677L10.9149 11.4251V9.61646L10.7341 9.25474L10.5532 8.53128L11.0958 7.62697Z" fill="#E1E8EB"></path>
  <path d="M13.6279 8.73534C13.6279 8.51483 13.5622 8.2962 13.438 8.10304C13.1817 7.70479 13.0463 7.22871 13.0463 6.72624V6.37752C13.0463 6.26846 12.9579 6.18006 12.8488 6.18006H11.1514C11.0424 6.18006 10.9539 6.26846 10.9539 6.37752V6.72626C10.9539 7.22873 10.8185 7.70481 10.5622 8.1031C10.438 8.2962 10.3723 8.51483 10.3723 8.73535C10.3723 9.06836 10.5169 9.38175 10.781 9.62744V11.1716C10.781 11.8438 11.3278 12.3908 12 12.3908C12.6723 12.3908 13.2192 11.8438 13.2192 11.1716V9.62744C13.4833 9.38173 13.6279 9.06834 13.6279 8.73534ZM12.8243 11.1715C12.8243 11.626 12.4545 11.9958 12 11.9958C11.5456 11.9958 11.176 11.626 11.176 11.1715V9.41123C11.176 9.18747 11.2654 8.97962 11.417 8.82812C11.4617 9.10971 11.7061 9.32569 12.0001 9.32569C12.2939 9.32569 12.5381 9.10998 12.583 8.82866C12.7386 8.98436 12.8243 9.19124 12.8243 9.41123L12.8243 11.1715ZM11.8046 8.7353V7.94939C11.8046 7.8416 11.8923 7.7539 12 7.7539C12.1078 7.7539 12.1955 7.8416 12.1955 7.94939V8.7353C12.1955 8.84309 12.1078 8.93078 12 8.93078C11.8923 8.93078 11.8046 8.84309 11.8046 8.7353ZM13.164 9.04737C13.1061 8.86138 13.0037 8.69089 12.862 8.54919C12.7808 8.46799 12.6898 8.39971 12.5905 8.34473V7.94941C12.5905 7.62385 12.3256 7.35899 12 7.35899C11.6745 7.35899 11.4096 7.62385 11.4096 7.94941V8.3443C11.132 8.49753 10.9285 8.7505 10.8362 9.04743C10.7909 8.94802 10.7672 8.84279 10.7672 8.73537C10.7672 8.5887 10.81 8.44785 10.8943 8.31681C11.1917 7.85471 11.3488 7.30471 11.3488 6.7263V6.57499H12.6513V6.72626C12.6513 7.30467 12.8085 7.85467 13.1059 8.31671C13.1902 8.44783 13.2329 8.58866 13.2329 8.73534C13.2329 8.84276 13.2092 8.94798 13.164 9.04737Z" fill="#4C6C7B"></path>
  <path d="M12.0001 10.3767C11.7092 10.3767 11.4725 10.6133 11.4725 10.9042V11.1714C11.4725 11.4622 11.7092 11.6989 12.0001 11.6989C12.2909 11.6989 12.5276 11.4622 12.5276 11.1714V10.9042C12.5276 10.6133 12.2909 10.3767 12.0001 10.3767ZM12.1326 11.1714C12.1326 11.2445 12.0732 11.3039 12.0001 11.3039C11.927 11.3039 11.8675 11.2445 11.8675 11.1714V10.9042C11.8675 10.8311 11.927 10.7716 12.0001 10.7716C12.0732 10.7716 12.1326 10.8311 12.1326 10.9042V11.1714Z" fill="#4C6C7B"></path>
  <path d="M12.1807 2.26465C12.2806 2.26465 12.3616 2.34562 12.3616 2.44551C12.3616 2.5454 12.2806 2.62638 12.1807 2.62638L11.0956 2.62638C10.9957 2.62638 10.9147 2.5454 10.9147 2.44551C10.9147 2.34562 10.9957 2.26465 11.0956 2.26465L12.1807 2.26465Z" fill="#4C6C7B"></path>
  <path d="M12.9042 2.80724C13.0041 2.80724 13.0851 2.88821 13.0851 2.9881C13.0851 3.08799 13.0041 3.16897 12.9042 3.16897H11.819C11.7191 3.16897 11.6382 3.08799 11.6382 2.9881C11.6382 2.88821 11.7191 2.80724 11.819 2.80724L12.9042 2.80724Z" fill="#4C6C7B"></path>
  <path d="M12.1807 3.34983C12.2806 3.34983 12.3616 3.4308 12.3616 3.53069C12.3616 3.63058 12.2806 3.71156 12.1807 3.71156H11.0956C10.9957 3.71156 10.9147 3.63058 10.9147 3.53069C10.9147 3.4308 10.9957 3.34983 11.0956 3.34983H12.1807Z" fill="#4C6C7B"></path>
  <path d="M12.9042 3.89242C13.0041 3.89242 13.0851 3.97339 13.0851 4.07328C13.0851 4.17317 13.0041 4.25415 12.9042 4.25415H11.819C11.7191 4.25415 11.6382 4.17317 11.6382 4.07328C11.6382 3.97339 11.7191 3.89242 11.819 3.89242H12.9042Z" fill="#4C6C7B"></path>
  <path d="M12.1807 4.43501C12.2806 4.43501 12.3616 4.51598 12.3616 4.61587C12.3616 4.71576 12.2806 4.79674 12.1807 4.79674H11.0956C10.9957 4.79674 10.9147 4.71576 10.9147 4.61587C10.9147 4.51598 10.9957 4.43501 11.0956 4.43501H12.1807Z" fill="#4C6C7B"></path>
  <path d="M12.9042 4.9776C13.0041 4.9776 13.0851 5.05857 13.0851 5.15846C13.0851 5.25835 13.0041 5.33933 12.9042 5.33933H11.819C11.7191 5.33933 11.6382 5.25835 11.6382 5.15846C11.6382 5.05857 11.7191 4.9776 11.819 4.9776H12.9042Z" fill="#4C6C7B"></path>
  <path d="M12.1807 5.52019C12.2806 5.52019 12.3616 5.60117 12.3616 5.70105C12.3616 5.80094 12.2806 5.88192 12.1807 5.88192H11.0956C10.9957 5.88192 10.9147 5.80094 10.9147 5.70105C10.9147 5.60117 10.9957 5.52019 11.0956 5.52019H12.1807Z" fill="#4C6C7B"></path>
  <path d="M13.5946 2.26437C13.0954 3.5495 11.94 5.51975 13.105 7.17584C13.4077 7.63518 15.2515 8.34524 16.4087 8.75498C17.1473 9.01652 17.7549 9.84096 17.7549 10.6261L17.8517 18.2709C17.8517 19.6687 16.6869 20.8013 15.249 20.8013H5.49453C5.2776 20.8013 5.06703 20.7747 4.86554 20.7261C5.32885 21.5132 6.18989 21.9985 7.12269 21.9994H16.8772C18.3157 21.9998 19.4812 20.8668 19.4807 19.4684L19.4807 8.01518L13.5946 2.26437Z" fill="#4C6C7B"></path>
  <path d="M13.3241 2.00002L12.5153 5.16211C12.4615 5.37242 12.4528 5.59135 12.4899 5.8051C12.5269 6.01885 12.6088 6.2228 12.7305 6.40409C12.8522 6.58539 13.0109 6.74011 13.1968 6.85852C13.3827 6.97693 13.5916 7.05646 13.8105 7.0921L19.4807 8.01518L13.3241 2.00002Z" fill="#F6F8FA"></path>
  <path d="M9.09276 18.7871V18.459L10.5842 16.3198H9.08424V15.878H11.2376V16.2061L9.74759 18.3453H11.2462V18.7871H9.09276Z" fill="#4C6C7B"></path>
  <path d="M12.2831 15.878V18.7871H11.7561V15.878H12.2831Z" fill="#4C6C7B"></path>
  <path d="M12.8538 18.7871V15.878H13.9447C14.1682 15.878 14.3557 15.9197 14.5072 16.003C14.6596 16.0864 14.7747 16.2009 14.8524 16.3468C14.9309 16.4917 14.9702 16.6564 14.9702 16.8411C14.9702 17.0276 14.9309 17.1934 14.8524 17.3382C14.7738 17.4831 14.6577 17.5972 14.5043 17.6806C14.3509 17.763 14.162 17.8042 13.9376 17.8042H13.3808V17.3709H13.8666C13.9972 17.3709 14.1042 17.3482 14.1876 17.3027C14.2709 17.2573 14.3325 17.1948 14.3722 17.1152C14.413 17.0357 14.4333 16.9443 14.4333 16.8411C14.4333 16.7379 14.413 16.647 14.3722 16.5684C14.3325 16.4898 14.2704 16.4287 14.1862 16.3851C14.1028 16.3406 13.9953 16.3184 13.8637 16.3184H13.3808V18.7871H12.8538Z" fill="#4C6C7B"></path>
</svg>
