<?xml version="1.0" encoding="utf-8"?>
<!-- Generator: Adobe Illustrator 22.0.1, SVG Export Plug-In . SVG Version: 6.00 Build 0)  -->
<svg version="1.1" id="Calque_1" xmlns="http://www.w3.org/2000/svg" xmlns:xlink="http://www.w3.org/1999/xlink" x="0px" y="0px"
	 viewBox="0 0 19 19" style="enable-background:new 0 0 19 19;" xml:space="preserve">
<style type="text/css">
	.st0{fill:none;stroke:#000000;stroke-miterlimit:10;}
</style>
<title>ic_telecharger_corpus</title>
<path class="st0" d="M18,2.7L16.6,1c-0.3-0.3-0.7-0.6-1.1-0.5h-12C3,0.5,2.6,0.7,2.3,1L1,2.7C0.7,3.1,0.5,3.5,0.5,4v12.5
	c0,1.1,0.9,2,2,2h14c1.1,0,2-0.9,2-2V4C18.5,3.5,18.3,3.1,18,2.7z M9.5,15L4,9.5h3.5v-2h4v2H15L9.5,15z M2.6,2.5l0.8-1h12l0.9,1H2.6
	z"/>
</svg>
