<?xml version="1.0" encoding="utf-8"?>
<!-- Generator: Adobe Illustrator 22.0.1, SVG Export Plug-In . SVG Version: 6.00 Build 0)  -->
<svg version="1.1" id="Calque_1" xmlns="http://www.w3.org/2000/svg" xmlns:xlink="http://www.w3.org/1999/xlink" x="0px" y="0px"
	 viewBox="0 0 889 214" style="enable-background:new 0 0 889 214;" xml:space="preserve">
<style type="text/css">
	.st0{fill:#458CA5;}
	.st1{fill:#C4D733;}
</style>
<path class="st0" d="M156.5,2.6C179.6-1.6,203.4,1.2,226,7c6.8,1.7,13.4,4.2,20,6.9c0.1,15.1,0,30.1,0,45.2c-1.9,0-4,0.6-5.6-0.7
	c-18.3-13.6-41.3-21.8-64.3-19.6c-8.6,0.8-17.7,4-23,11.2c-5.4,7.1-3.2,18.8,4.7,23.1c6.8,4.1,14.7,5.6,22.3,7.5
	c15,3.6,30.3,7.1,44.1,14.1c11.7,6,22.3,15.5,26.7,28.3c4.4,13.1,4.4,27.6,1.1,40.9c-5.3,19.6-21.5,34.6-40,41.9
	c-9.6,3.7-19.7,6.1-30,6.9c-7.7,0.9-15.4-0.6-23.1,0.4c-21.6-0.4-42.8-6.3-62.5-14.8c-0.2-0.4-0.5-1.1-0.7-1.4
	c-0.1-15.4-0.2-30.9,0.1-46.3c2.1,0,4.5-0.5,6.2,1.3c15.4,12.5,34.3,20.7,54,23.1c9,1.2,18.1,0.6,26.9-1.5c6.6-1.9,13.2-6,15.9-12.6
	c2.1-5.9,1.3-13-3.2-17.6c-7-7.3-17.3-8.9-26.7-11.4c-19-4.3-39.1-8.7-54.5-21.3C103,101.3,96.8,86.7,96,72.1
	c-1.5-14.6,2-30.1,11.3-41.7C119.4,15.2,137.7,6.2,156.5,2.6z"/>
<path class="st0" d="M0,5.1C10.3,4.8,20.7,5,31,5.3c6.6,0.2,13.3-0.6,19.8,0.6c-0.2,69.4-0.1,138.8,0,208.1H0V5.1z"/>
<path class="st0" d="M300.2,5.1C355.9,4.9,411.5,5,467.2,5c0,12.6,0.3,25.2-0.1,37.7c-19.4,0-38.7-0.2-58.1,0.1
	c0,57,0,114.1,0,171.2h-50.2c-0.2-57-0.1-114.1,0-171.1c-19.5-0.5-39,0-58.5-0.2C300.3,30.2,300.3,17.6,300.2,5.1z"/>
<path class="st0" d="M508.2,10.9c-0.4-3.2,2.5-6.2,5.7-5.8c44.7,0,89.4,0,134.1,0c3.4-0.6,6.4,2.6,5.9,5.9
	c-0.1,11.7,0.1,23.4-0.1,35c0.2,3.1-3.1,5.1-5.9,4.9c-27.1,0.1-54.2-0.1-81.2,0.1c-0.1,9.7-0.1,19.4,0,29c24.4,0.2,48.9,0,73.3,0.1
	c3.2-0.5,6.1,2.6,5.7,5.8c0.1,11.4,0.1,22.8,0,34.2c0.3,3.2-2.6,6.2-5.8,5.8c-24.4,0.1-48.8-0.1-73.2,0.1c-0.2,13.8-0.1,27.6,0,41.3
	c27.1,0.3,54.2,0,81.3,0.1c3-0.3,6.3,2.3,5.9,5.5c0,12,0.1,24.1,0,36.1c0.2,1.6-1,2.8-2.2,3.7c-3.8,0.9-7.8,0.3-11.7,0.4
	c-35,0.4-70-0.1-105,0.1c-7.7-0.4-15.4,0.5-23-0.3c-3.1-0.6-4.1-4.2-3.8-6.9C508.2,141,508.2,75.9,508.2,10.9z"/>
<path class="st0" d="M697.9,12.2c-2.2-3,0.4-7.6,4.1-7.1c18.7-0.1,37.4-0.1,56.1,0c2.6-0.2,4.5,1.9,5.7,4
	c8.8,15.1,17.4,30.3,26.2,45.4c0.4-0.5,1.2-1.5,1.6-1.9c8.2-14.4,16.5-28.8,24.8-43.2c1.4-2.4,3.5-4.8,6.6-4.3c18.7,0,37.4-0.1,56,0
	c2.1-0.3,3.4,1.5,4.8,2.8c0.5,3.6-2.2,6.3-3.8,9.1c-18.2,29.2-36.4,58.3-54.5,87.5c-0.7,1-0.7,2,0,3.1c20.6,33,41.3,66,61.9,99
	c0.6,1.6,0.9,4-0.7,5.2c-2.3,2.4-5.9,1.3-8.8,1.5c-14,0.1-28,0.1-42-0.1c-3.7,0-7.3,0.4-11-0.3c-1.9-0.4-3-2.3-4-3.8
	c-9.7-16.7-19.4-33.3-29.1-50c-0.5-0.7-1-1.4-1.5-2c-9.9,17.3-19.9,34.4-29.9,51.6c-1.2,2.1-2.9,4.4-5.5,4.7
	c-18.7-0.2-37.4-0.1-56.1,0c-2.6,0.3-6-1.2-5.9-4.2c-0.3-2.2,1.3-4,2.3-5.7c19.8-31.8,39.6-63.6,59.5-95.4c0.6-1,1.6-2.3,0.7-3.5
	C736.4,73.7,717,43,697.9,12.2z"/>
<path class="st1" d="M512.3,9.2C558.2,8.7,604.1,9.1,650,9c0,12.6,0.2,25.2-0.2,37.8c-29.1-0.1-58.1-0.2-87.2,0.1
	c-0.2,12.4-0.3,24.8,0,37.2c26.4,0.2,52.7-0.3,79.1,0.2c-0.1,12.5,0.1,25-0.1,37.5c-26.3,0-52.7-0.2-79,0.1
	c-0.1,16.5-0.3,33,0.1,49.5c29.1,0.4,58.2-0.1,87.3,0.2c0,12.5,0.1,25.1,0,37.6c-42.3,0.1-84.7,0-127,0.1c-3.6-0.1-7.2,0.3-10.7-0.3
	C512.4,142.3,512.4,75.8,512.3,9.2z"/>
<path class="st1" d="M700.9,9c19.3,0,38.7-0.2,58.1,0.1c10.5,16.9,20,34.6,30.2,51.8c0.4,0.3,1.2,1.1,1.6,1.4
	c10-17.8,20.4-35.3,30.4-53.1c19.6-0.3,39.3-0.2,59-0.1c-19.7,31.9-39.7,63.6-59.5,95.5c-0.8,0.9-0.8,1.8,0,2.8
	c21.1,33.9,42.5,67.6,63.4,101.6c-18,0.5-36,0-54.1,0.2c-1.6-0.2-4,0.6-4.9-1.3c-9.4-15.9-18.6-32-27.9-47.9
	c-2.4-3.6-3.9-7.8-6.9-10.9c-11.4,20-23.1,39.8-34.6,59.8c-1.5,0.5-3.2,0.3-4.7,0.3c-18-0.2-36.1,0.2-54.2-0.2
	c21-34.5,42.7-68.6,63.9-102.9c-0.3-2.4-2.3-4.3-3.4-6.5c-11.8-18.9-23.7-37.7-35.5-56.6C714.9,31.6,707.5,20.5,700.9,9z"/>
</svg>
